<svg xmlns="http://www.w3.org/2000/svg" xmlns:xlink="http://www.w3.org/1999/xlink" width="300" height="300" viewBox="-204526.295959 -16867.7874637 8541.94861477 7285.24919377" preserveAspectRatio="xMinYMin meet"><g transform="matrix(1,0,0,-1,0,-26450.3257337)"><path fill-rule="evenodd" fill="#66cc99" stroke="#555555" stroke-width="56.9463240984" opacity="0.6" d="M -199423.984143,-9997.00182469 L -199342.072097,-10057.5131473 L -199336.409284,-10053.8449645 L -199330.380635,-10050.8198901 L -199324.058459,-10048.4742075 L -199317.518585,-10046.8360509 L -199310.839453,-10045.9250688 L -199304.101174,-10045.7521874 L -199297.384568,-10046.3194805 L -199290.770194,-10047.6201437 L -199284.337387,-10049.6385767 L -199278.163302,-10052.35057 L -199251.363892,-10065.8341897 L -199179.645729,-10101.7462369 L -199174.809602,-10103.7891692 L -199169.732089,-10105.1183084 L -199164.517282,-10105.706406 L -199159.272091,-10105.5414054 L -199154.104045,-10104.6266894 L -199149.119095,-10102.9810104 L -199144.419436,-10100.6381063 L -199140.101415,-10097.6460087 L -199126.847292,-10087.0945094 L -199117.683177,-10080.244869 L -199108.112073,-10073.9803413 L -199098.171061,-10068.3251973 L -199087.898657,-10063.301347 L -199077.334659,-10058.9282546 L -199066.519996,-10055.2228629 L -199055.496568,-10052.1995279 L -199044.307084,-10049.8699631 L -199032.994895,-10048.2431939 L -199021.60383,-10047.3255231 L -199010.178021,-10047.1205059 L -198998.761736,-10047.6289366 L -198987.399205,-10048.8488453 L -198976.134452,-10050.7755057 L -198965.011119,-10053.4014532 L -198954.072302,-10056.7165138 L -198897.927781,-10075.6245017 L -198891.885914,-10078.0361037 L -198886.161594,-10081.1303633 L -198880.831157,-10084.8660184 L -198875.965683,-10089.193254 L -198871.630054,-10094.0543664 L -198867.882085,-10099.3845327 L -198864.771756,-10105.112675 L -198861.978037,-10110.2606972 L -198858.594298,-10115.0392039 L -198854.668476,-10119.3804997 L -198850.256186,-10123.2230828 L -198845.419937,-10126.5125168 L -198840.228241,-10129.2022012 L -198834.754647,-10131.2540322 L -198829.076699,-10132.6389421 L -198823.274834,-10133.3373116 L -198817.431245,-10133.339247 L -198809.912079,-10133.3112122 L -198802.431522,-10134.0739348 L -198795.071991,-10135.6190113 L -198787.91457,-10137.9294189 L -198781.038116,-10140.9797024 L -198774.518391,-10144.7362552 L -198768.427226,-10149.1576893 L -198762.831732,-10154.1952913 L -198757.793556,-10159.7935592 L -198747.917898,-10172.5357808 L -198738.645632,-10185.7263357 L -198729.996944,-10199.3365043 L -198721.990665,-10213.3366532 L -198714.644228,-10227.6962999 L -198707.973628,-10242.3841793 L -198665.207049,-10342.5903576 L -198661.984165,-10349.3004527 L -198658.118723,-10355.6598182 L -198653.648233,-10361.606745 L -198648.616075,-10367.0835262 L -198643.071079,-10372.0370171 L -198637.108193,-10376.4471647 L -198630.749041,-10380.2598855 L -198624.052897,-10383.4396401 L -198617.082178,-10385.9567893 L -198609.90186,-10387.7878702 L -198602.578872,-10388.9158148 L -198595.181473,-10389.3301092 L -198588.4471,-10389.6226548 L -198581.793135,-10390.7030551 L -198575.310861,-10392.5564888 L -198569.089203,-10395.1575299 L -198563.213513,-10398.4704962 L -198557.764394,-10402.4499393 L -198552.816601,-10407.0412679 L -198548.438008,-10412.1814962 L -198544.688683,-10417.800109 L -198541.620061,-10423.8200279 L -198539.274237,-10430.1586697 L -198537.683393,-10436.7290786 L -198536.869352,-10443.4411193 L -198536.843282,-10450.2027137 L -198540.155698,-10555.9359722 L -198540.692814,-10560.922435 L -198540.492177,-10565.9337722 L -198539.558161,-10570.8607517 L -198537.911123,-10575.5959803 L -198535.586965,-10580.0362443 L -198532.636347,-10584.0847594 L -198529.123582,-10587.6532801 L -198525.125239,-10590.6640235 L -198520.728469,-10593.0513644 L -198516.029108,-10594.7632662 L -198511.129589,-10595.7624145 L -198506.136706,-10596.0270309 L -198501.159289,-10595.5513476 L -198496.529409,-10595.0985085 L -198491.989604,-10594.0802242 L -198487.608242,-10592.5118301 L -198483.451306,-10590.416946 L -198469.202084,-10582.1038122 L -198463.029928,-10578.8801559 L -198456.566474,-10576.2941546 L -198449.877002,-10574.3719264 L -198443.029071,-10573.132885 L -198436.091846,-10572.5895443 L -198429.135389,-10572.747392 L -198422.229958,-10573.6048337 L -198415.445297,-10575.1532096 L -198408.849928,-10577.3768815 L -198402.510462,-10580.253391 L -198396.490927,-10583.7536862 L -198390.852117,-10587.8424153 L -198385.650982,-10592.4782833 L -198380.940053,-10597.6144694 L -198376.766908,-10603.1990997 L -198358.597145,-10630.039103 L -198354.303377,-10635.6913428 L -198349.404489,-10640.8245974 L -198343.962335,-10645.3740531 L -198338.045629,-10649.2822677 L -198331.729076,-10652.4998952 L -198325.092431,-10654.9863094 L -198318.219489,-10656.7101161 L -198311.19703,-10657.6495504 L -198304.113719,-10657.7927508 L -198297.058993,-10657.1379092 L -198290.121926,-10655.6932938 L -198283.390107,-10653.4771447 L -198276.948532,-10650.5174433 L -198270.878535,-10646.8515596 L -198206.405476,-10602.9314714 L -198201.42641,-10599.9500526 L -198196.104328,-10597.6407932 L -198190.528944,-10596.0426196 L -198184.79424,-10595.1824717 L -198178.996884,-10595.0748488 L -198173.234601,-10595.721565 L -198167.604524,-10597.1117188 L -198162.201557,-10599.2218768 L -198157.116777,-10602.0164686 L -198152.435896,-10605.4483867 L -198148.237818,-10609.4597802 L -198144.593309,-10613.9830303 L -198141.563803,-10618.9418899 L -198139.200368,-10624.252769 L -198098.48809,-10732.2762879 L -198096.66993,-10737.934447 L -198095.420529,-10743.7457479 L -198094.752224,-10749.6528199 L -198094.67161,-10755.5973466 L -198095.252609,-10762.1274325 L -198096.519913,-10768.5591449 L -198098.459262,-10774.8201108 L -198101.048832,-10780.8398781 L -198104.259484,-10786.5507093 L -198108.055091,-10791.8883429 L -198112.392942,-10796.7927168 L -198116.610924,-10801.3916223 L -198120.236066,-10806.4737748 L -198123.213847,-10811.9627384 L -198125.49948,-10817.7759591 L -198127.05859,-10823.8260055 L -198127.867728,-10830.0218849 L -198127.914723,-10836.2704108 L -198124.559975,-10901.5726539 L -198123.685561,-10911.534282 L -198122.136347,-10921.4128671 L -198119.919537,-10931.1624699 L -198108.469141,-10974.2348059 L -198106.367281,-10980.2705167 L -198103.841719,-10986.1404682 L -198100.905312,-10991.8147792 L -198097.573008,-10997.2645645 L -198090.034572,-11007.7313052 L -198087.828008,-11010.340359 L -198085.233804,-11012.5617579 L -198082.31875,-11014.3383108 L -198079.157894,-11015.6242792 L -198075.832616,-11016.3865553 L -198072.428526,-11016.6055137 L -198069.033264,-11016.2755172 L -198065.734244,-11015.4050618 L -198062.616401,-11014.0165579 L -198059.760005,-11012.1457534 L -198057.238597,-11009.8408132 L -198036.535442,-10987.7335925 L -198032.918635,-10984.3501379 L -198028.878463,-10981.4890707 L -198024.489355,-10979.2030973 L -198019.832166,-10977.5343302 L -198014.992692,-10976.5135111 L -198010.060085,-10976.1594456 L -198005.125214,-10976.4786564 L -198000.278988,-10977.4652628 L -197995.610685,-10979.1010896 L -197956.468628,-10995.8051764 L -197950.842269,-10997.8196699 L -197945.022916,-10999.1748536 L -197939.087071,-10999.8529123 L -197933.112768,-10999.8449324 L -197927.178543,-10999.1510186 L -197917.155562,-10997.3682275 L -197911.437137,-10996.6911932 L -197905.679396,-10996.7470537 L -197899.97531,-10997.534907 L -197894.416989,-10999.0420311 L -197889.094184,-11001.2440897 L -197884.092846,-11004.105525 L -197879.493735,-11007.5801317 L -197875.371114,-11011.6118035 L -197871.791554,-11016.1354389 L -197868.812855,-11021.0779921 L -197851.579805,-11053.8222081 L -197847.590334,-11061.1960178 L -197843.115753,-11068.2840955 L -197838.176299,-11075.0543824 L -197832.794313,-11081.4762571 L -197826.994139,-11087.5206739 L -197819.354665,-11095.3012703 L -197815.860253,-11099.2545275 L -197812.89434,-11103.6207627 L -197810.504892,-11108.3293612 L -197808.730554,-11113.3041715 L -197807.600022,-11118.4647364 L -197807.13158,-11123.7275948 L -197805.293939,-11173.9735825 L -197805.243138,-11179.5233394 L -197805.930832,-11185.0304019 L -197807.344728,-11190.3963303 L -197809.459553,-11195.5252076 L -197812.237503,-11200.3253543 L -197815.628922,-11204.7109669 L -197838.826531,-11233.0648352 L -197841.703554,-11236.7838808 L -197843.925521,-11240.9301762 L -197845.430819,-11245.388748 L -197846.177707,-11250.0359635 L -197846.145475,-11254.7429591 L -197845.335016,-11259.3792136 L -197843.768805,-11263.8161674 L -197841.49027,-11267.9307873 L -197838.562593,-11271.6089781 L -197835.066957,-11274.7487467 L -197831.100293,-11277.2630297 L -197826.772594,-11279.0821081 L -197822.203863,-11280.1555403 L -197817.520786,-11280.453561 L -197810.969502,-11281.016031 L -197804.515161,-11282.274488 L -197798.23103,-11284.2146467 L -197792.188444,-11286.8144833 L -197786.455994,-11290.0444856 L -197781.098753,-11293.8679883 L -197775.405316,-11298.3713636 L -197772.239871,-11300.5630003 L -197768.764633,-11302.2163559 L -197765.069769,-11303.2885335 L -197761.251141,-11303.7517154 L -197757.407827,-11303.593884 L -197753.639541,-11302.8191343 L -197750.044053,-11301.4475675 L -197746.714649,-11299.5147693 L -197743.737711,-11297.0708867 L -197708.837835,-11264.4931556 L -197706.125794,-11262.0515801 L -197703.061232,-11260.073681 L -197699.722159,-11258.6098063 L -197696.193571,-11257.697219 L -197692.56529,-11257.3591492 L -197688.929673,-11257.6042026 L -197685.379266,-11258.4261412 L -197682.004446,-11259.8040424 L -197678.891119,-11261.7028316 L -197676.118534,-11264.0741746 L -197664.618879,-11274.2731186 L -197656.986451,-11280.9213102 L -197648.996164,-11287.1320486 L -197640.672897,-11292.8859956 L -197632.042568,-11298.1652352 L -197623.132047,-11302.9533298 L -197613.969079,-11307.2353706 L -197608.032028,-11310.2976829 L -197602.429785,-11313.9397401 L -197597.218413,-11318.1250948 L -197592.450064,-11322.8118626 L -197588.172457,-11327.9531414 L -197584.428398,-11333.4974807 L -197581.255357,-11339.3893963 L -197579.34601,-11343.9246456 L -197578.164928,-11348.7031426 L -197577.740995,-11353.6080265 L -197578.084578,-11358.5193454 L -197579.187276,-11363.31699 L -197581.022121,-11367.883631 L -197584.642032,-11375.783339 L -197585.318199,-11377.4086264 L -197585.714264,-11379.1243299 L -197585.8191,-11380.8822483 L -197585.629761,-11382.6329942 L -197585.151568,-11384.3273819 L -197584.397953,-11385.9178089 L -197583.390091,-11387.3595936 L -197582.156294,-11388.6122301 L -197580.731227,-11389.6405267 L -197579.154925,-11390.4155943 L -197577.471673,-11390.9156578 L -197575.430849,-11391.4343518 L -197573.33413,-11391.6254815 L -197571.233431,-11391.4843144 L -197569.180766,-11391.014346 L -197567.22696,-11390.2272127 L -197565.420389,-11389.1424042 L -197563.805784,-11387.7867807 L -197559.109803,-11383.81009 L -197553.219523,-11390.8092567 L -197551.021028,-11400.9338342 L -197518.381292,-11551.2165825 L -197503.802022,-11620.2440978 L -197620.146899,-11718.3850591 L -197553.409013,-11768.2193687 L -197532.803331,-12037.1545451 L -197331.523528,-12229.1924963 L -197152.942408,-15156.6421796 L -197150.419613,-15202.3691082 L -197066.585545,-15198.0064625 L -197059.313558,-15208.536917 L -197053.018775,-15256.7542569 L -197030.0017,-15297.210661 L -196957.938777,-15347.8904183 L -196957.799933,-15348.2620175 L -196338.986079,-15315.9243856 L -196300.715811,-15916.6635096 L -197450.840753,-15978.2526485 L -197740.944082,-15990.4127446 L -197897.088,-16044.0010999 L -197942.900424,-16051.2894923 L -197962.983188,-15729.6856527 L -198225.269024,-15767.2520894 L -198694.0294,-15834.5615633 L -199094.670185,-15890.7603632 L -199360.772451,-15926.0785034 L -199315.846376,-16257.192965 L -199413.601495,-16271.4037936 L -199386.306227,-16469.8197323 L -199667.838383,-16509.7878901 L -199975.574674,-16551.4189965 L -200003.754741,-16345.3130298 L -200507.88744,-16417.7697254 L -200529.699075,-16264.3809596 L -200551.623581,-16177.5977113 L -200600.230777,-16189.9526119 L -200647.71612,-16003.7992663 L -200848.184248,-16050.0176791 L -200854.657567,-16021.7478428 L -200886.175724,-16020.4972337 L -201100.26157,-16070.2402413 L -202186.097824,-16322.5382534 L -202186.22558,-16322.5680238 L -202187.519079,-16315.3098282 L -202188.271766,-16307.9752456 L -202188.479486,-16300.6047655 L -202188.141091,-16293.2390756 L -202188.029897,-16291.9885811 L -202187.332602,-16286.3838548 L -202183.649374,-16264.2513116 L -202179.405487,-16242.2199507 L -202174.603693,-16220.3040616 L -202169.247106,-16198.5178595 L -202163.339202,-16176.8754749 L -202157.49901,-16155.5714347 L -202152.155395,-16134.1367094 L -202147.311262,-16112.5829453 L -202142.969243,-16090.9218536 L -202139.131696,-16069.1652036 L -202137.297411,-16060.400909 L -202134.709103,-16051.8300789 L -202131.386447,-16043.5178631 L -202127.354699,-16035.5274456 L -202124.67464,-16029.999084 L -202122.66946,-16024.1901638 L -202121.367659,-16018.1832514 L -202120.787742,-16012.0637276 L -202120.93795,-16005.9185737 L -202121.816149,-15999.8351354 L -202122.774855,-15994.1302594 L -202123.319766,-15988.3707111 L -202123.386167,-15981.8900148 L -202122.830857,-15975.4328651 L -202121.658985,-15969.0591386 L -202119.443647,-15958.5886015 L -202117.677539,-15948.0325355 L -202116.363906,-15937.4103269 L -202110.477152,-15877.2344862 L -202109.74877,-15865.5012695 L -202109.757856,-15853.7454406 L -202110.504372,-15842.0135952 L -202111.985359,-15830.352234 L -202114.194949,-15818.8075785 L -202115.431952,-15812.4179703 L -202116.292785,-15805.9664679 L -202116.774477,-15799.475335 L -202117.171532,-15785.0994611 L -202117.074418,-15770.7183261 L -202117.235307,-15765.7018714 L -202117.956743,-15760.7353535 L -202119.229598,-15755.8815975 L -202121.828471,-15746.6426381 L -202123.710774,-15737.2303362 L -202124.865342,-15727.7005244 L -202125.285326,-15718.1097321 L -202125.491724,-15714.9005036 L -202126.073525,-15711.7380601 L -202127.022628,-15708.6664312 L -202128.4153,-15703.9621942 L -202129.130794,-15699.107577 L -202129.154729,-15694.2001458 L -202128.486625,-15689.3385282 L -202128.031599,-15686.2870532 L -202127.940778,-15683.2030288 L -202128.215447,-15680.1300415 L -202129.567446,-15673.280696 L -202131.547795,-15666.5870159 L -202134.139374,-15660.1068682 L -202136.727074,-15653.7795955 L -202138.818497,-15647.2702281 L -202140.401084,-15640.6178632 L -202141.465326,-15633.8624571 L -202142.004834,-15627.0445849 L -202142.603197,-15618.4782097 L -202143.702441,-15609.9619967 L -202144.763224,-15604.8716824 L -202146.304928,-15599.9066846 L -202148.313392,-15595.1126075 L -202149.950481,-15591.4375707 L -202151.39939,-15587.6838497 L -202152.527965,-15583.8005459 L -202153.180762,-15579.8088769 L -202153.348225,-15575.767269 L -202153.379615,-15569.1349366 L -202153.726529,-15562.5117132 L -202155.80114,-15531.9485187 L -202156.203894,-15528.6333676 L -202157.009947,-15525.3931082 L -202158.207068,-15522.2769132 L -202159.293235,-15519.4506072 L -202160.025827,-15516.5120071 L -202160.393794,-15513.5054332 L -202161.480575,-15500.5486343 L -202163.163059,-15487.6561421 L -202166.58984,-15467.7953751 L -202170.73113,-15448.0721741 L -202175.581501,-15428.5123944 L -202178.809003,-15415.3592467 L -202181.495013,-15402.0841014 L -202183.634993,-15388.7093788 L -202185.219862,-15379.8439475 L -202187.486039,-15371.1287886 L -202190.419849,-15362.6165012 L -202191.899637,-15357.8734981 L -202192.719318,-15352.9720323 L -202192.863509,-15348.0040827 L -202192.329507,-15343.0628763 L -202191.673426,-15337.9959336 L -202191.497946,-15332.8895341 L -202191.804639,-15327.7894453 L -202192.683202,-15323.2569905 L -202194.313592,-15318.9391053 L -202196.6488,-15314.960291 L -202198.895187,-15311.1226659 L -202200.451817,-15306.9552256 L -202201.272525,-15302.5815654 L -202202.779653,-15290.5653022 L -202204.877685,-15278.6386569 L -202207.56148,-15266.8308491 L -202210.404629,-15254.2120439 L -202212.573377,-15241.4590879 L -202214.06156,-15228.6082204 L -202214.823127,-15223.7128598 L -202216.220527,-15218.9607708 L -202218.229438,-15214.4346691 L -202220.018743,-15210.3219545 L -202221.188262,-15205.9906257 L -202221.712774,-15201.5340884 L -202221.580969,-15197.0484486 L -202220.795688,-15192.63044 L -202220.468025,-15190.7475914 L -202220.437677,-15188.8365562 L -202220.705389,-15186.944284 L -202221.264583,-15185.1172637 L -202222.101522,-15183.4003809 L -202223.195643,-15181.8358155 L -202224.147485,-15180.4765276 L -202224.879484,-15178.9864885 L -202225.37421,-15177.4011817 L -202225.619881,-15175.7583595 L -202226.869884,-15162.5357307 L -202228.695,-15149.3806539 L -202231.091738,-15136.3182864 L -202234.055515,-15123.3736083 L -202237.791991,-15107.3493831 L -202240.956127,-15091.2015469 L -202243.543894,-15074.9506614 L -202245.551997,-15058.6174199 L -202246.2145,-15054.4846618 L -202247.324398,-15050.4496595 L -202248.86833,-15046.5609917 L -202250.827706,-15042.8654757 L -202251.997245,-15040.5326395 L -202252.790986,-15038.0457223 L -202253.189629,-15035.4651997 L -202253.183478,-15032.8538238 L -202252.772684,-15030.2750969 L -202251.633299,-15025.7882503 L -202251.134596,-15023.2722558 L -202250.97191,-15020.7122558 L -202251.148097,-15018.1532066 L -202251.782487,-15012.1060736 L -202252.049342,-15006.0313888 L -202251.947676,-14999.9516082 L -202251.126932,-14989.9201497 L -202249.614004,-14979.9699332 L -202249.348795,-14977.4780945 L -202249.486696,-14974.9759765 L -202250.024112,-14972.528771 L -202250.947043,-14970.200239 L -202252.23144,-14968.0510494 L -202254.317048,-14964.6723531 L -202255.944334,-14961.0490577 L -202257.085359,-14957.2433689 L -202260.086298,-14945.3942592 L -202263.59957,-14933.6877902 L -202267.61849,-14922.1462392 L -202270.23746,-14914.2622347 L -202272.279897,-14906.208475 L -202273.735057,-14898.0273193 L -202274.595288,-14889.761797 L -202275.143846,-14885.6004725 L -202276.219188,-14881.5439712 L -202277.803603,-14877.6591039 L -202279.870995,-14874.0098549 L -202282.044706,-14870.198246 L -202283.737827,-14866.1487075 L -202284.924986,-14861.9219203 L -202285.588396,-14857.5812212 L -202286.527561,-14850.5709565 L -202288.052924,-14843.6652422 L -202290.15361,-14836.9133089 L -202292.814644,-14830.3632908 L -202296.201333,-14822.2082169 L -202299.020841,-14813.8387208 L -202301.259817,-14805.2944377 L -202302.907657,-14796.6158305 L -202303.833827,-14792.1668368 L -202305.217864,-14787.839181 L -202307.044649,-14783.6801363 L -202309.294228,-14779.7351339 L -202322.028926,-14759.3710791 L -202334.303409,-14738.7245787 L -202339.764695,-14729.95895 L -202345.777347,-14721.5643324 L -202352.316414,-14713.5755643 L -202359.354756,-14706.0258001 L -202366.40258,-14699.311656 L -202373.804449,-14692.9924697 L -202381.538402,-14687.0869892 L -202389.581493,-14681.6127355 L -202394.490813,-14678.1490671 L -202399.075415,-14674.2633454 L -202403.299364,-14669.9860296 L -202407.129549,-14665.3506485 L -202412.908774,-14657.3765417 L -202418.374548,-14649.1830359 L -202423.518607,-14640.7825199 L -202427.195859,-14633.8485642 L -202430.270519,-14626.6253525 L -202432.720211,-14619.1654541 L -202434.527106,-14611.5231611 L -202434.764866,-14609.5022581 L -202434.701842,-14607.468267 L -202434.339424,-14605.4659857 L -202433.685593,-14603.5395132 L -202432.75475,-14601.7312792 L -202431.567396,-14600.0811092 L -202430.891401,-14599.1567984 L -202430.374539,-14598.1343844 L -202430.030622,-14597.0411869 L -202429.86884,-14595.9064171 L -202429.893515,-14594.7603968 L -202430.103989,-14593.6337487 L -202430.494637,-14592.5565777 L -202431.05502,-14591.5576666 L -202431.770165,-14590.6637071 L -202432.620963,-14589.8985865 L -202433.58468,-14589.2827494 L -202434.635564,-14588.8326516 L -202437.084423,-14587.9220885 L -202442.162514,-14586.2816179 L -202447.39938,-14585.2598218 L -202452.720405,-14584.8712591 L -202458.049773,-14585.1214662 L -202467.425379,-14585.7485847 L -202467.658171,-14585.7685398 L -202467.884133,-14585.8281492 L -202468.096604,-14585.9256553 L -202468.28932,-14586.0581832 L -202468.456597,-14586.2218256 L -202468.593505,-14586.4117575 L -202468.696007,-14586.622379 L -202468.76108,-14586.8474802 L -202468.786806,-14587.0804242 L -202468.772426,-14587.3143428 L -202468.644068,-14587.9400819 L -202468.412405,-14588.5351515 L -202468.084066,-14589.0825253 L -202467.668445,-14589.5665417 L -202467.291071,-14590.0081711 L -202466.995659,-14590.508701 L -202466.79114,-14591.0530029 L -202466.683694,-14591.6246255 L -202466.676569,-14592.2062916 L -202466.769981,-14592.7804203 L -202466.961105,-14593.3296589 L -202467.244166,-14593.8374067 L -202467.690066,-14594.3933623 L -202468.222353,-14594.8667109 L -202468.826036,-14595.2441232 L -202469.484118,-14595.5149717 L -202470.178066,-14595.6716296 L -202470.888341,-14595.7096855 L -202471.594941,-14595.6280679 L -202472.27797,-14595.4290749 L -202472.918193,-14595.11831 L -202473.497583,-14594.7045242 L -202474.014026,-14594.1916324 L -202474.441511,-14593.6020939 L -202474.768912,-14592.9512545 L -202474.987706,-14592.2560557 L -202475.092197,-14591.5345935 L -202475.079666,-14590.8056478 L -202474.950439,-14590.088193 L -202474.707879,-14589.4009046 L -202474.358301,-14588.7616729 L -202473.910804,-14588.1871372 L -202473.70009,-14587.9182761 L -202473.539038,-14587.6168437 L -202473.432526,-14587.2919721 L -202473.383782,-14586.9535039 L -202473.394283,-14586.6116933 L -202473.46371,-14586.2768959 L -202473.58996,-14585.959255 L -202473.769209,-14585.6683939 L -202473.996024,-14585.4131245 L -202474.263536,-14585.2011807 L -202474.563638,-14585.0389836 L -202475.857599,-14584.5871998 L -202477.207864,-14584.3540066 L -202478.578003,-14584.3456956 L -202483.265525,-14584.512528 L -202487.951105,-14584.2989673 L -202492.130481,-14584.1267975 L -202496.308482,-14584.3309374 L -202500.451505,-14584.9097451 L -202504.787625,-14585.5246601 L -202509.160265,-14585.7646631 L -202514.979636,-14586.0934008 L -202520.747154,-14586.9381006 L -202526.417447,-14588.292117 L -202531.945906,-14590.1447978 L -202534.447106,-14590.8936938 L -202537.032881,-14591.2509617 L -202539.642661,-14591.2082329 L -202542.215315,-14590.7665083 L -202545.463168,-14590.1965786 L -202548.759147,-14590.1049694 L -202552.033622,-14590.4936162 L -202555.159167,-14590.8393957 L -202558.299434,-14590.6773303 L -202561.37295,-14590.0116245 L -202564.299974,-14588.8595497 L -202565.391132,-14588.4245685 L -202566.535654,-14588.1614909 L -202567.706802,-14588.0764632 L -202568.877215,-14588.1714719 L -202570.019548,-14588.4442972 L -202571.107114,-14588.8885653 L -202572.114504,-14589.4938969 L -202574.632425,-14591.1477676 L -202577.263506,-14592.6136799 L -202581.365376,-14595.1054146 L -202585.053378,-14598.1800196 L -202588.245868,-14601.7694318 L -202589.33788,-14603.4425335 L -202590.166056,-14605.261585 L -202590.711475,-14607.1850268 L -202590.961677,-14609.1689139 L -202590.926562,-14613.9066415 L -202590.340808,-14618.6078401 L -202586.639847,-14636.8231866 L -202583.757767,-14648.459953 L -202580.317228,-14659.9429644 L -202576.326305,-14671.2452717 L -202566.899365,-14696.9073244 L -202558.066433,-14722.7812354 L -202538.72595,-14781.2861459 L -202534.400765,-14795.1603675 L -202530.602342,-14809.1889809 L -202527.336125,-14823.3518715 L -202524.76677,-14836.9037587 L -202522.752456,-14850.5498534 L -202521.296559,-14864.2672918 L -202520.33078,-14872.2390928 L -202518.806171,-14880.1224874 L -202516.730348,-14887.8781089 L -202515.721415,-14891.9308832 L -202515.145147,-14896.0679888 L -202515.008,-14900.2430846 L -202515.51366,-14907.3155581 L -202516.743799,-14914.2981079 L -202518.685296,-14921.1162569 L -202520.110515,-14926.3198884 L -202520.885538,-14931.6599546 L -202520.998547,-14937.0550261 L -202521.025923,-14938.0010513 L -202521.195229,-14938.9321337 L -202521.502592,-14939.8269698 L -202521.940979,-14940.6650857 L -202522.50036,-14941.4273051 L -202523.167936,-14942.0961884 L -202523.928432,-14942.6564313 L -202525.586932,-14943.9066854 L -202527.020894,-14945.4106369 L -202528.192201,-14947.1283065 L -202531.167514,-14952.9453971 L -202533.608914,-14959.0074014 L -202534.356008,-14960.6758432 L -202535.374743,-14962.1927881 L -202536.635511,-14963.5141493 L -202538.101672,-14964.6015245 L -202545.493435,-14969.6097434 L -202552.455493,-14975.2034239 L -202558.941871,-14981.3456262 L -202561.520086,-14983.6235791 L -202564.4146,-14985.480211 L -202567.557604,-14986.872026 L -202570.875465,-14987.7664177 L -202574.290455,-14988.1424327 L -202577.72257,-14987.991262 L -202579.087335,-14987.722626 L -202580.389515,-14987.2326922 L -202581.593715,-14986.534778 L -202582.667202,-14985.6478542 L -202583.580796,-14984.5960292 L -202584.309663,-14983.407894 L -202584.833992,-14982.1157444 L -202592.746271,-14958.2627715 L -202595.468054,-14949.2944317 L -202597.550699,-14940.1553603 L -202598.983775,-14930.8913256 L -202599.760106,-14921.5487217 L -202599.875804,-14912.1743362 L -202599.859984,-14895.1455954 L -202600.591855,-14878.1327944 L -202602.069997,-14861.168951 L -202603.601459,-14850.1766368 L -202605.780069,-14839.2948667 L -202608.598158,-14828.5619412 L -202614.464348,-14807.6047537 L -202619.765405,-14786.4965222 L -202623.007816,-14771.8883818 L -202625.834668,-14757.1935729 L -202628.243675,-14742.4239875 L -202635.794913,-14691.6154927 L -202637.824697,-14680.6679367 L -202640.632717,-14669.8949112 L -202644.204483,-14659.3520055 L -202648.521565,-14649.0936212 L -202650.808625,-14643.2294137 L -202652.348108,-14637.1246089 L -202653.115939,-14630.8746808 L -202653.617295,-14626.9950835 L -202654.646095,-14623.2216797 L -202656.182765,-14619.6262634 L -202657.579607,-14616.3729505 L -202658.52722,-14612.9605879 L -202659.00836,-14609.4512683 L -202659.014272,-14605.9088487 L -202659.020475,-14602.6557269 L -202659.464889,-14599.4333561 L -202660.339361,-14596.3008591 L -202661.627847,-14593.3157098 L -202662.738028,-14590.6484752 L -202663.405608,-14587.8366748 L -202663.613168,-14584.9536721 L -202663.355295,-14582.0746881 L -202663.252991,-14580.9975108 L -202663.314088,-14579.917218 L -202663.537182,-14578.8586081 L -202663.917154,-14577.8459818 L -202664.445279,-14576.9025841 L -202665.852791,-14574.4005696 L -202666.879607,-14571.7186234 L -202667.503561,-14568.9146396 L -202667.711184,-14566.0491469 L -202667.497995,-14563.1840016 L -202667.27311,-14559.7643192 L -202667.604508,-14556.35345 L -202668.4834,-14553.0418458 L -202669.88648,-14549.9173258 L -202671.855762,-14545.6287467 L -202673.182456,-14541.0984237 L -202673.838366,-14536.4226431 L -202673.809549,-14531.7007827 L -202673.737108,-14527.6763801 L -202674.151102,-14523.6728763 L -202675.045436,-14519.7492157 L -202676.406944,-14515.963167 L -202678.791708,-14509.4827895 L -202680.47538,-14502.7845274 L -202681.438837,-14495.9444583 L -202682.88492,-14482.3365285 L -202684.848053,-14468.7940063 L -202687.325373,-14455.3366523 L -202690.313263,-14441.9841027 L -202691.499018,-14436.2739114 L -202692.289041,-14430.4951818 L -202692.679562,-14424.6754752 L -202692.932057,-14422.4321199 L -202693.541905,-14420.2590279 L -202694.49314,-14418.2130857 L -202695.760861,-14416.3478512 L -202696.962667,-14414.6015808 L -202697.88867,-14412.6936812 L -202698.517763,-14410.6676415 L -202698.835606,-14408.5696435 L -202698.834954,-14406.4475095 L -202698.859304,-14402.9950963 L -202699.442433,-14399.5925952 L -202700.568849,-14396.3303984 L -202701.015845,-14395.0440093 L -202701.254181,-14393.7028275 L -202701.277846,-14392.340678 L -202701.086243,-14390.9919148 L -202700.684204,-14389.6905543 L -202700.081868,-14388.4694173 L -202693.779879,-14378.1679657 L -202692.462619,-14376.3729958 L -202690.89265,-14374.79573 L -202689.105268,-14373.4716283 L -202687.140656,-14372.4304589 L -202685.042983,-14371.6956293 L -202678.114576,-14369.7091659 L -202676.868512,-14369.2307837 L -202675.70611,-14368.5737784 L -202674.652652,-14367.7524395 L -202673.73105,-14366.7846304 L -202672.961348,-14365.6914004 L -202670.198366,-14361.7774128 L -202666.897245,-14358.3081496 L -202663.293452,-14355.5395613 L -202659.284855,-14353.4032345 L -202657.00574,-14352.2041262 L -202654.942571,-14350.6608993 L -202653.146547,-14348.8118491 L -202651.662235,-14346.7028604 L -202649.437412,-14343.5849419 L -202646.722594,-14340.8856785 L -202645.193621,-14339.4136765 L -202643.881131,-14337.7446225 L -202642.810105,-14335.9102838 L -202642.000929,-14333.9455734 L -202640.372472,-14330.0982683 L -202638.168701,-14326.550913 L -202638.017682,-14326.3284239 L -202637.90449,-14326.0843827 L -202637.832099,-14325.8252055 L -202637.802414,-14325.5577061 L -202637.816214,-14325.2889172 L -202637.873137,-14325.0259054 L -202637.971687,-14324.7755854 L -202638.109272,-14324.5445383 L -202638.282275,-14324.3388383 L -202638.486148,-14324.1638935 L -202638.715531,-14324.0243031 L -202638.964394,-14323.9237372 L -202639.226193,-14323.8648396 L -202639.494046,-14323.8491588 L -202640.20716,-14323.7789714 L -202640.901197,-14323.6003221 L -202641.559863,-14323.3174051 L -202642.167694,-14322.9368627 L -202642.50351,-14322.7267687 L -202642.870123,-14322.5771824 L -202643.256801,-14322.4924831 L -202643.652223,-14322.4751505 L -202644.044813,-14322.525692 L -202644.423076,-14322.6426279 L -202644.77594,-14322.8225349 L -202645.093072,-14323.0601459 L -202645.36519,-14323.3485044 L -202645.584326,-14323.6791686 L -202645.744064,-14324.0424576 L -202646.334379,-14325.4304822 L -202647.097083,-14326.7312369 L -202647.591347,-14327.3494618 L -202648.181861,-14327.8759034 L -202648.851936,-14328.2956813 L -202649.58263,-14328.5969303 L -202650.35329,-14328.7711352 L -202651.142132,-14328.813372 L -202651.92686,-14328.7224469 L -202652.685292,-14328.5009299 L -202658.254338,-14326.4514123 L -202658.788888,-14326.2197765 L -202659.279147,-14325.9046281 L -202659.71226,-14325.5142306 L -202660.07687,-14325.0588206 L -202660.363418,-14324.5503395 L -202660.564389,-14324.0021201 L -202660.674515,-14323.4285375 L -202660.690906,-14322.8446315 L -202660.534693,-14321.519153 L -202660.174011,-14320.2343876 L -202659.617714,-14319.021873 L -202658.879457,-14317.9113736 L -202655.676105,-14314.1733968 L -202652.152915,-14310.7371672 L -202648.338023,-14307.6301266 L -202644.961856,-14305.4770105 L -202641.313889,-14303.829454 L -202637.46887,-14302.7212168 L -202633.505587,-14302.1750073 L -202629.505249,-14302.202018 L -202625.549828,-14302.8016951 L -202623.47288,-14303.0937263 L -202621.376349,-14303.0365854 L -202619.318168,-14302.6318513 L -202617.35521,-14301.8907079 L -202615.541717,-14300.833635 L -202613.9278,-14299.4898422 L -202611.571846,-14296.7510579 L -202609.72272,-14293.6453728 L -202608.435984,-14290.2661063 L -202607.750303,-14286.7147982 L -202607.68628,-14283.0981577 L -202608.245838,-14279.5248574 L -202609.955103,-14274.0751713 L -202612.359925,-14268.8964954 L -202615.419031,-14264.0777079 L -202619.07992,-14259.7015105 L -202620.327276,-14258.5732128 L -202621.729452,-14257.645675 L -202623.254635,-14256.9399411 L -202624.868222,-14256.4720232 L -202626.533603,-14256.2525375 L -202628.212994,-14256.2864636 L -202630.520556,-14256.3327735 L -202632.809446,-14256.0356725 L -202635.029156,-14255.4017166 L -202637.130704,-14254.4448949 L -202639.068937,-14253.5748281 L -202641.120113,-14253.0236463 L -202643.232467,-14252.8052588 L -202645.352695,-14252.9251767 L -202647.42729,-14253.3803739 L -202649.403899,-14254.1593632 L -202658.579558,-14259.0551755 L -202664.167189,-14262.6430922 L -202669.402883,-14266.7304459 L -202674.242407,-14271.2827051 L -202678.644876,-14276.2614108 L -202682.573094,-14281.624501 L -202686.090905,-14286.497581 L -202689.972646,-14291.0842343 L -202694.195221,-14295.3571717 L -202698.733507,-14299.2909705 L -202703.06297,-14302.3335974 L -202707.743137,-14304.7988856 L -202712.69791,-14306.64675 L -202717.846724,-14307.8471445 L -202723.105861,-14308.3805509 L -202725.161529,-14308.6184413 L -202727.154495,-14309.1772107 L -202729.0353,-14310.0429923 L -202730.757269,-14311.1943 L -202732.277667,-14312.6025621 L -202733.500092,-14313.7315788 L -202734.886789,-14314.6499286 L -202736.402044,-14315.3339595 L -202738.006831,-14315.7660544 L -202739.659819,-14315.9350847 L -202768.450296,-14316.2408974 L -202774.823243,-14316.5664107 L -202781.126975,-14317.5614519 L -202787.291785,-14319.2150173 L -202793.249499,-14321.5088211 L -202800.089717,-14324.2829766 L -202807.105683,-14326.5730973 L -202814.263401,-14328.3680864 L -202831.748878,-14331.818498 L -202849.335069,-14334.7078174 L -202854.196699,-14335.6732174 L -202858.940417,-14337.112769 L -202863.52038,-14339.0125606 L -202867.892328,-14341.3542331 L -202870.852039,-14342.8197254 L -202874.008906,-14343.7860702 L -202877.2799,-14344.2278511 L -202882.027658,-14344.6641294 L -202886.727861,-14345.4659821 L -202891.352574,-14346.6286439 L -202897.00675,-14348.6311563 L -202902.404367,-14351.2510874 L -202907.478659,-14354.4560293 L -202912.166857,-14358.2063377 L -202915.412581,-14360.6462995 L -202919.027397,-14362.4915785 L -202922.904118,-14363.6874573 L -202926.927787,-14364.198475 L -202930.76718,-14364.6060382 L -202934.521837,-14365.5083495 L -202951.361477,-14370.6006312 L -202968.272426,-14375.4491842 L -202977.955814,-14377.8726369 L -202987.754252,-14379.7742861 L -202997.639816,-14381.1487123 L -203007.584333,-14381.9919984 L -203013.069082,-14382.5712369 L -203018.474616,-14383.6687008 L -203023.752382,-14385.2745331 L -203028.854977,-14387.3743107 L -203033.736571,-14389.9491737 L -203036.414707,-14391.7726471 L -203038.830229,-14393.9339374 L -203040.941075,-14396.3954105 L -203042.710489,-14399.1142053 L -203043.357061,-14400.0886203 L -203044.14662,-14400.95052 L -203045.060009,-14401.6789932 L -203046.075068,-14402.256366 L -203047.167171,-14402.6686304 L -203048.30982,-14402.9057842 L -203049.151625,-14403.0781647 L -203049.956322,-14403.3801981 L -203050.704196,-14403.8044847 L -203051.376924,-14404.3406292 L -203051.958024,-14404.9754962 L -203052.43326,-14405.6935313 L -203052.790987,-14406.4771427 L -203057.538707,-14418.3603663 L -203058.102082,-14420.0076313 L -203058.417385,-14421.720144 L -203058.477735,-14423.4605287 L -203058.281814,-14425.1908015 L -203057.833898,-14426.8731991 L -203057.143764,-14428.471003 L -203056.261139,-14430.4933495 L -203055.669889,-14432.6198903 L -203055.381691,-14434.8086226 L -203055.402237,-14437.0163153 L -203055.436649,-14441.5577163 L -203054.820054,-14446.0568337 L -203053.565251,-14450.4202546 L -203051.698296,-14454.557383 L -203050.133836,-14457.9553323 L -203049.018348,-14461.5270543 L -203048.370383,-14465.2131479 L -203048.200718,-14468.95231 L -203048.035405,-14472.0813767 L -203047.422527,-14475.1538638 L -203046.374866,-14478.1056983 L -203044.914269,-14480.8753232 L -203042.372044,-14485.4594479 L -203040.306446,-14490.2786424 L -203038.738776,-14495.2832081 L -203037.07185,-14502.7680362 L -203035.914992,-14510.3491373 L -203035.718153,-14514.1131717 L -203036.168874,-14517.8552654 L -203037.253752,-14521.4641505 L -203038.940531,-14524.8325201 L -203041.179056,-14527.8602187 L -203043.902765,-14530.4572205 L -203047.030672,-14532.546306 L -203050.469771,-14534.065358 L -203054.117804,-14534.969209 L -203059.906294,-14535.8642227 L -203065.730446,-14536.4837891 L -203086.978124,-14538.5438079 L -203108.158247,-14541.2143325 L -203130.709793,-14544.5937633 L -203153.197779,-14548.3758038 L -203175.615063,-14552.5592529 L -203180.472334,-14553.8064609 L -203185.152893,-14555.6098508 L -203189.593679,-14557.9451253 L -203193.734862,-14560.7808209 L -203198.234905,-14564.548015 L -203202.43017,-14568.6539282 L -203206.295381,-14573.0738239 L -203207.617157,-14574.4589277 L -203209.15148,-14575.6024505 L -203210.855009,-14576.472091 L -203212.679625,-14577.0432843 L -203214.573788,-14577.2998959 L -203221.845453,-14577.93088 L -203229.057424,-14579.0574704 L -203236.176169,-14580.6744293 L -203243.168594,-14582.7742391 L -203246.57585,-14583.634255 L -203250.075129,-14583.949758 L -203253.580495,-14583.7129996 L -203257.005861,-14582.9297943 L -203265.919775,-14580.18934 L -203271.34354,-14578.8457563 L -203276.874223,-14578.0535723 L -203282.456264,-14577.8207463 L -203288.033585,-14578.1496173 L -203293.550159,-14579.0368815 L -203298.950564,-14580.4736255 L -203316.467243,-14586.339741 L -203333.82813,-14592.6548793 L -203349.523512,-14598.9432738 L -203364.965653,-14605.8339033 L -203380.131597,-14613.3165238 L -203387.857213,-14617.5733534 L -203395.352528,-14622.2261475 L -203399.869595,-14625.5917665 L -203403.956093,-14629.4718618 L -203407.554127,-14633.8114611 L -203410.612721,-14638.5490821 L -203417.366672,-14650.197582 L -203418.865231,-14653.1759295 L -203419.929969,-14656.3364948 L -203420.539589,-14659.6160594 L -203421.149128,-14663.249567 L -203422.13866,-14666.7979956 L -203425.028615,-14674.2100552 L -203428.604314,-14681.3148691 L -203432.83371,-14688.0487609 L -203437.678896,-14694.3513786 L -203441.495943,-14699.0773808 L -203445.09254,-14703.9742678 L -203449.429379,-14710.7498319 L -203453.193808,-14717.8613489 L -203456.360124,-14725.2602617 L -203457.007136,-14727.5126959 L -203457.27095,-14729.8417318 L -203457.144189,-14732.1822433 L -203456.630398,-14734.4687834 L -203454.585992,-14739.9892648 L -203451.999024,-14745.2757083 L -203444.07828,-14760.2372964 L -203436.713568,-14775.4820755 L -203429.914927,-14790.9892644 L -203427.682992,-14797.1919006 L -203426.073639,-14803.5856658 L -203425.102653,-14810.1078533 L -203423.365504,-14825.166343 L -203421.135292,-14840.1592587 L -203418.414433,-14855.0703603 L -203417.773119,-14859.6124121 L -203417.649285,-14864.1981914 L -203418.044528,-14868.7685672 L -203418.953752,-14873.264607 L -203420.009679,-14878.7449999 L -203420.337322,-14884.3170212 L -203419.930981,-14889.8837123 L -203419.35647,-14896.4724148 L -203419.464847,-14903.0854837 L -203420.254947,-14909.6518914 L -203421.618856,-14918.7177599 L -203422.580074,-14927.835382 L -203423.113488,-14930.9902946 L -203424.180202,-14934.0061304 L -203425.748383,-14936.7928941 L -203427.771235,-14939.2674261 L -203430.471116,-14942.4557278 L -203432.715942,-14945.9812382 L -203433.616303,-14947.991671 L -203434.192055,-14950.1185965 L -203434.42902,-14952.3096361 L -203434.321364,-14954.5108322 L -203433.250111,-14963.2766296 L -203431.958448,-14972.493757 L -203431.28487,-14978.2055145 L -203431.124748,-14983.9549327 L -203431.278131,-14985.7818494 L -203431.675436,-14987.5714283 L -203432.30942,-14989.2910501 L -203433.168527,-14990.9093709 L -203438.565626,-14998.9692897 L -203440.029675,-15000.7473019 L -203441.707921,-15002.3233944 L -203442.856838,-15003.1276165 L -203444.118839,-15003.7378483 L -203445.461649,-15004.1384824 L -203446.850923,-15004.3192719 L -203450.815228,-15004.8042585 L -203454.669722,-15005.8529784 L -203455.194769,-15005.9941426 L -203455.734992,-15006.0545362 L -203456.278115,-15006.0327868 L -203456.811794,-15005.9293886 L -203457.323904,-15005.7466913 L -203457.802806,-15005.4888466 L -203458.237618,-15005.1617139 L -203459.94828,-15003.8192349 L -203461.795216,-15002.6727329 L -203466.668631,-14999.6085831 L -203471.135475,-14995.974052 L -203475.129789,-14991.8228076 L -203477.664224,-14989.3065624 L -203480.582452,-14987.2508774 L -203483.802314,-14985.7136272 L -203488.25801,-14984.1194779 L -203488.562584,-14984.0395013 L -203488.876185,-14984.0114523 L -203489.190076,-14984.0361123 L -203489.495516,-14984.1127942 L -203489.783996,-14984.2393623 L -203490.047482,-14984.4122913 L -203490.278635,-14984.6267647 L -203490.471016,-14984.8768086 L -203490.619267,-14985.1554586 L -203490.71926,-14985.4549535 L -203491.635198,-14989.9435012 L -203491.92963,-14993.7610815 L -203491.67484,-14997.5814464 L -203491.569822,-14999.010466 L -203491.651715,-15000.4410351 L -203491.919118,-15001.848659 L -203492.200202,-15002.6920404 L -203492.597167,-15003.4871832 L -203493.102062,-15004.2181577 L -203493.70477,-15004.8703199 L -203494.393218,-15005.4306045 L -203494.795017,-15005.6711665 L -203495.228304,-15005.84838 L -203495.683223,-15005.9582138 L -203496.149424,-15005.9981691 L -203496.616302,-15005.9673371 L -203497.073237,-15005.8664192 L -203497.699448,-15005.6260859 L -203498.277435,-15005.2852352 L -203498.791303,-15004.8532414 L -203499.226918,-15004.3419858 L -203499.572299,-15003.7655296 L -203499.817947,-15003.1397271 L -203499.957107,-15002.4817898 L -203501.47691,-14994.1618441 L -203502.241741,-14989.8071649 L -203502.548165,-14985.3960456 L -203502.677985,-14984.0659269 L -203503.021641,-14982.7747048 L -203503.569991,-14981.5567318 L -203504.308444,-14980.4444115 L -203506.527114,-14977.9628084 L -203507.946814,-14976.335861 L -203509.099711,-14974.5089282 L -203509.958287,-14972.5256169 L -203510.502048,-14970.4332666 L -203510.718016,-14968.2818195 L -203511.202901,-14962.7523551 L -203512.371579,-14957.3268502 L -203514.205793,-14952.0900489 L -203516.573712,-14945.6842287 L -203518.353656,-14939.08956 L -203519.531,-14932.3602207 L -203520.096074,-14925.5514949 L -203520.759428,-14917.4947615 L -203522.13577,-14909.5294695 L -203524.214151,-14901.7189785 L -203526.767236,-14892.6713298 L -203528.781569,-14883.4877886 L -203530.250074,-14874.2006034 L -203531.167597,-14864.8423866 L -203532.122875,-14855.2964058 L -203533.67853,-14845.8303024 L -203535.828323,-14836.4820315 L -203538.563637,-14827.2890756 L -203541.554783,-14817.4642318 L -203544.046735,-14807.5001378 L -203546.033115,-14797.422296 L -203547.508838,-14787.2565 L -203549.112321,-14775.6427926 L -203551.137521,-14764.0956324 L -203553.581735,-14752.6304222 L -203559.066904,-14727.6241502 L -203563.935829,-14702.489739 L -203568.185548,-14677.2424667 L -203571.81348,-14651.8976799 L -203574.83009,-14630.7652215 L -203575.82,-14626.0189343 L -203577.299361,-14621.4026091 L -203579.251947,-14616.9668817 L -203581.656339,-14612.7604065 L -203585.088405,-14607.9559377 L -203588.97417,-14603.5127552 L -203593.610554,-14598.3845419 L -203597.903606,-14592.9638748 L -203601.835047,-14587.2738351 L -203608.25354,-14576.9081032 L -203609.399589,-14574.6478468 L -203610.228911,-14572.2523291 L -203610.726129,-14569.7659598 L -203610.882027,-14567.234833 L -203611.069819,-14560.7034668 L -203611.708522,-14554.2009405 L -203612.368435,-14547.1775986 L -203612.481575,-14540.1239593 L -203612.047256,-14533.0827894 L -203611.708813,-14526.6819362 L -203611.981202,-14520.2780056 L -203612.631915,-14513.0962734 L -203612.988034,-14509.4261655 L -203613.042671,-14508.3304882 L -203612.91062,-14507.2414388 L -203612.595734,-14506.1907915 L -203612.402523,-14505.5761943 L -203612.299098,-14504.9401807 L -203612.287592,-14504.2958781 L -203612.368242,-14503.6565848 L -203612.886239,-14499.5449102 L -203612.809046,-14495.4011661 L -203612.777404,-14491.6547712 L -203613.360054,-14487.9542055 L -203613.800933,-14485.2528477 L -203613.823128,-14482.5155551 L -203613.426115,-14479.8072329 L -203613.167022,-14478.012248 L -203613.193804,-14476.1987871 L -203613.505788,-14474.4123759 L -203613.903528,-14472.4044032 L -203614.073851,-14470.364284 L -203614.117268,-14459.1935384 L -203613.638836,-14448.0329424 L -203613.496847,-14443.3116285 L -203613.697113,-14438.592493 L -203614.516716,-14431.0364015 L -203614.737765,-14428.5048485 L -203614.705099,-14425.9637757 L -203614.48303,-14419.4378376 L -203614.638334,-14412.910015 L -203615.347239,-14395.4892474 L -203615.638734,-14378.056361 L -203615.827312,-14375.6272001 L -203616.365339,-14373.2512634 L -203616.682361,-14371.9239443 L -203616.836796,-14370.5678574 L -203616.82637,-14369.2029657 L -203616.701365,-14365.7782429 L -203616.791933,-14362.3524626 L -203616.991237,-14356.7974419 L -203616.948644,-14351.238952 L -203617.094773,-14347.2449788 L -203617.765258,-14343.3053945 L -203618.535451,-14338.856317 L -203618.738149,-14334.3451515 L -203618.717004,-14322.2848865 L -203619.096883,-14310.230686 L -203620.437829,-14276.5722254 L -203621.217954,-14242.8959045 L -203621.383695,-14233.4551991 L -203621.447688,-14232.7551054 L -203621.620712,-14232.0738528 L -203621.898457,-14231.4284173 L -203622.274001,-14230.8348823 L -203622.737987,-14230.3080381 L -203623.278851,-14229.8610129 L -203623.883117,-14229.5049462 L -203624.563468,-14229.2161356 L -203625.273634,-14229.0119086 L -203629.660901,-14227.6418685 L -203630.169637,-14227.3911404 L -203630.636222,-14227.0683027 L -203631.050574,-14226.6803312 L -203631.403741,-14226.2356095 L -203631.68809,-14225.7437472 L -203632.708642,-14223.1595299 L -203633.321901,-14220.4487976 L -203633.496375,-14218.3764764 L -203633.413835,-14216.2983874 L -203633.07555,-14214.2464815 L -203632.566814,-14212.6387409 L -203631.802306,-14211.1363296 L -203630.802701,-14209.7798726 L -203628.229163,-14207.1324154 L -203625.383534,-14204.781824 L -203622.299668,-14202.7560637 L -203615.661109,-14199.3383511 L -203608.708745,-14196.6202501 L -203602.817233,-14194.8970856 L -203596.815638,-14193.6121144 L -203590.736305,-14192.7722618 L -203586.070476,-14192.5571967 L -203581.408987,-14192.8509051 L -203576.806809,-14193.6499234 L -203573.917501,-14194.526895 L -203571.173762,-14195.7893978 L -203568.626441,-14197.4140352 L -203568.063915,-14197.8983705 L -203567.580784,-14198.4623902 L -203567.188134,-14199.0931527 L -203566.595053,-14200.4354311 L -203566.183588,-14201.8444578 L -203565.96092,-14203.2956315 L -203565.93094,-14204.7636152 L -203565.94367,-14209.0060265 L -203565.599502,-14213.2343318 L -203565.481113,-14216.1945903 L -203565.856588,-14219.1332664 L -203566.715409,-14221.9680343 L -203567.685415,-14224.9108124 L -203568.300171,-14227.9482689 L -203568.423151,-14229.9305462 L -203568.23502,-14231.9076248 L -203567.740422,-14233.8306755 L -203566.160402,-14239.2335296 L -203563.317458,-14250.3411809 L -203560.218395,-14261.379648 L -203554.519307,-14281.4535499 L -203549.169108,-14301.6238887 L -203545.856725,-14313.1835145 L -203541.891059,-14324.5342232 L -203539.523716,-14331.2975854 L -203537.538178,-14338.1835206 L -203535.94069,-14345.1703616 L -203534.439018,-14351.5021058 L -203532.484409,-14357.7081461 L -203530.087116,-14363.7559285 L -203527.020983,-14371.2832229 L -203524.360215,-14378.9641699 L -203522.112415,-14386.7768237 L -203517.654917,-14403.3751178 L -203512.904006,-14419.8912701 L -203512.190725,-14421.7411677 L -203511.189449,-14423.4514704 L -203509.926374,-14424.9774337 L -203508.434544,-14426.2791355 L -203503.325042,-14429.72962 L -203497.931231,-14432.7131581 L -203492.2954,-14435.2063594 L -203487.478015,-14436.8671169 L -203482.543363,-14438.1351479 L -203477.523201,-14439.0022918 L -203458.991023,-14441.0367092 L -203451.436847,-14441.3876261 L -203443.879473,-14441.1120187 L -203434.865554,-14440.1212638 L -203425.9316,-14438.5632917 L -203417.113049,-14436.4442824 L -203401.470987,-14432.4256618 L -203385.709766,-14428.906901 L -203369.845257,-14425.8915432 L -203356.169616,-14423.2844598 L -203342.586601,-14420.2284385 L -203329.110854,-14416.7267737 L -203315.756902,-14412.7832404 L -203302.000338,-14408.773323 L -203288.095484,-14405.3164818 L -203274.06443,-14402.4182084 L -203249.795804,-14397.6103043 L -203225.647396,-14392.2272834 L -203201.63275,-14386.2721645 L -203194.14967,-14384.4567679 L -203186.609926,-14382.8951848 L -203183.588246,-14382.1668269 L -203180.652239,-14381.144897 L -203173.12885,-14378.4633524 L -203165.408995,-14376.4198535 L -203159.683377,-14374.9328238 L -203154.083341,-14373.0241301 L -203151.764384,-14372.3389574 L -203149.367369,-14372.0246432 L -203146.950867,-14372.0888674 L -203145.821805,-14372.1150877 L -203144.703433,-14371.95722 L -203143.625379,-14371.6194469 L -203139.812897,-14370.0738723 L -203147.87592,-14350.2750115 L -203103.487716,-14332.0804411 L -203102.971726,-14333.349068 L -203092.622866,-14329.1058235 L -203085.935278,-14345.5283114 L -203080.762063,-14342.6871121 L -203075.988738,-14339.2121533 L -203072.227981,-14335.7661085 L -203068.823206,-14331.965854 L -203067.938012,-14330.6768686 L -203067.270314,-14329.2622028 L -203066.837395,-14327.7584729 L -203066.650459,-14326.2046004 L -203066.666937,-14321.6353643 L -203067.085871,-14317.0855255 L -203067.621836,-14314.0623731 L -203068.394841,-14311.0913414 L -203068.672833,-14310.3668459 L -203069.055847,-14309.6922924 L -203069.535247,-14309.0828919 L -203070.100222,-14308.5523864 L -203070.738033,-14308.1127387 L -203072.940353,-14306.6855806 L -203075.009707,-14305.0705732 L -203077.86465,-14302.3400464 L -203080.389897,-14299.300192 L -203082.552384,-14295.9908105 L -203084.323799,-14292.4552311 L -203086.497897,-14288.3999272 L -203089.321819,-14284.7699206 L -203092.174771,-14281.1897171 L -203094.47583,-14277.2298671 L -203096.175652,-14272.9752841 L -203099.512007,-14263.2107953 L -203103.270066,-14253.6017501 L -203107.442666,-14244.1664624 L -203110.78527,-14236.1373726 L -203113.414883,-14227.8456582 L -203116.253251,-14218.1302586 L -203119.49311,-14208.5421235 L -203123.128823,-14199.0979387 L -203126.596203,-14190.1602521 L -203129.735866,-14181.1014568 L -203130.410189,-14179.4567845 L -203131.320191,-14177.9306326 L -203132.445752,-14176.5567442 L -203135.522054,-14172.865701 L -203138.088712,-14168.8014755 L -203140.101315,-14164.4343913 L -203146.456238,-14148.7665394 L -203153.39386,-14133.3494893 L -203156.335032,-14126.6225331 L -203158.875211,-14119.7330967 L -203161.005539,-14112.7052052 L -203164.284387,-14101.3063191 L -203167.909169,-14090.0133832 L -203171.487171,-14080.3676887 L -203175.624219,-14070.9497227 L -203180.306007,-14061.7920519 L -203182.902252,-14057.6593462 L -203185.97608,-14053.8706602 L -203189.482696,-14050.4812105 L -203193.370992,-14047.5403948 L -203197.584302,-14045.0910726 L -203203.518033,-14042.1485376 L -203209.996459,-14039.2646594 L -203216.657807,-14036.8358783 L -203223.470352,-14034.8737611 L -203228.363502,-14033.401564 L -203233.09971,-14031.4812878 L -203237.094207,-14029.8789829 L -203241.228523,-14028.6855941 L -203245.461178,-14027.9130949 L -203248.935344,-14027.2433116 L -203252.304367,-14026.1606258 L -203255.51967,-14024.6806488 L -203258.367901,-14023.4034494 L -203261.365997,-14022.5374632 L -203264.45529,-14022.0996359 L -203268.36461,-14021.6375102 L -203272.212896,-14020.8071074 L -203275.965751,-14019.6158502 L -203289.710728,-14014.3138964 L -203294.380282,-14012.8101177 L -203299.212888,-14011.9715184 L -203304.114869,-14011.814354 L -203307.227324,-14011.8116612 L -203310.330255,-14011.5680468 L -203312.128474,-14011.5031473 L -203313.913646,-14011.7298967 L -203315.639069,-14012.2423631 L -203316.80673,-14012.6155829 L -203318.01076,-14012.8446031 L -203319.233529,-14012.9260704 L -203320.158973,-14012.8542361 L -203321.05818,-14012.6233945 L -203321.904211,-14012.2404616 L -203322.671717,-14011.7169104 L -203323.337705,-14011.0684264 L -203323.882221,-14010.3144385 L -203327.280327,-14004.1469325 L -203329.562764,-13999.0728744 L -203331.408084,-13993.8229017 L -203332.877599,-13988.5354046 L -203334.086332,-13983.1818248 L -203335.967703,-13973.7862769 L -203340.306755,-13952.5103053 L -203343.239112,-13939.0089147 L -203345.900177,-13929.3422857 L -203348.927085,-13919.9243049 L -203351.329544,-13911.6872787 L -203353.346465,-13904.8902056 L -203353.964301,-13903.2875928 L -203354.747229,-13901.7593238 L -203355.515517,-13900.6172709 L -203356.427089,-13899.5867042 L -203357.056516,-13899.0248397 L -203357.740861,-13898.531793 L -203359.82954,-13897.3949588 L -203362.498223,-13896.4110999 L -203365.518867,-13895.7485046 L -203368.189748,-13895.4637752 L -203370.875239,-13895.4135759 L -203374.771984,-13895.6286711 L -203378.648909,-13896.0776476 L -203388.27743,-13897.7441656 L -203394.407532,-13899.2309474 L -203401.738127,-13901.5623464 L -203407.652616,-13903.3965551 L -203420.048211,-13906.5836914 L -203428.022991,-13908.3699957 L -203449.080869,-13912.5763826 L -203473.956703,-13917.7214569 L -203483.267542,-13919.4382237 L -203492.577454,-13921.1541181 L -203501.31542,-13923.1692234 L -203509.802643,-13925.1192237 L -203527.400153,-13928.5596058 L -203546.76685,-13932.5279069 L -203550.059497,-13933.0530551 L -203553.381689,-13933.3339254 L -203556.826896,-13933.6199742 L -203560.24328,-13934.1501434 L -203563.810243,-13934.9592273 L -203567.267807,-13935.9910184 L -203569.268359,-13936.7652971 L -203571.19041,-13937.7189425 L -203572.691261,-13938.4402246 L -203574.266254,-13938.9793912 L -203582.666003,-13941.1202784 L -203596.675321,-13944.9102008 L -203600.676267,-13946.1028985 L -203601.072356,-13946.2418729 L -203602.98399,-13946.9790792 L -203606.259832,-13948.4498582 L -203609.378785,-13950.2311332 L -203613.744594,-13953.2180755 L -203617.905965,-13956.4855125 L -203621.25471,-13959.4450637 L -203624.450051,-13962.5706233 L -203626.190742,-13964.5239624 L -203627.756558,-13966.6209442 L -203631.206938,-13971.8178711 L -203634.270347,-13976.6955494 L -203638.088183,-13983.0418989 L -203641.466649,-13988.8207621 L -203644.947439,-13995.3298436 L -203650.072307,-14006.2028244 L -203651.846913,-14010.4244795 L -203653.422729,-14014.7247512 L -203654.060582,-14016.9321203 L -203654.490363,-14019.1895248 L -203655.005502,-14024.1554297 L -203655.271705,-14031.1672695 L -203655.325665,-14048.081402 L -203655.117562,-14067.3504322 L -203654.738882,-14074.2478973 L -203654.394167,-14076.2853436 L -203653.726109,-14078.2402058 L -203653.199418,-14079.2636875 L -203652.544772,-14080.209937 L -203651.773239,-14081.062953 L -203649.727013,-14082.913864 L -203645.444443,-14086.3921254 L -203641.014499,-14089.6193041 L -203638.000306,-14091.8875698 L -203637.165046,-14092.6828667 L -203636.440122,-14093.5804856 L -203635.548405,-14094.9749434 L -203634.786262,-14096.4447006 L -203634.353485,-14097.5960843 L -203634.094276,-14098.7988302 L -203633.926321,-14100.6507867 L -203633.938686,-14102.5103771 L -203634.169296,-14104.3294202 L -203634.656909,-14106.0967107 L -203635.548713,-14108.2185777 L -203636.675289,-14110.2249714 L -203638.042798,-14112.0521161 L -203639.665766,-14113.6551687 L -203641.70306,-14115.1650416 L -203643.92293,-14116.3887638 L -203646.071198,-14117.2169213 L -203648.312521,-14117.7409735 L -203650.51993,-14117.9370313 L -203652.732594,-14117.8151803 L -203655.444488,-14117.2625833 L -203658.045207,-14116.3142286 L -203660.362894,-14115.0427032 L -203662.456245,-14113.4264192 L -203664.605129,-14111.328779 L -203666.587803,-14109.0724322 L -203668.029017,-14107.1172863 L -203669.279139,-14105.0339804 L -203672.246033,-14098.9099536 L -203673.90587,-14094.3499038 L -203675.756779,-14087.2527178 L -203676.199506,-14084.1153013 L -203676.483621,-14077.9786721 L -203676.809993,-14070.5099863 L -203677.770031,-14054.2176978 L -203678.476782,-14045.9398453 L -203679.623965,-14037.1012716 L -203680.269878,-14033.5896651 L -203681.136541,-14030.1262604 L -203681.90935,-14027.8206509 L -203682.893151,-14025.5974173 L -203684.91586,-14021.6740476 L -203688.629295,-14014.8153722 L -203696.460955,-14000.8735926 L -203700.276785,-13995.2431359 L -203706.318729,-13986.5863753 L -203714.634176,-13973.945495 L -203720.536535,-13965.127171 L -203724.298625,-13959.6878803 L -203726.44779,-13956.8679225 L -203728.797086,-13954.2134525 L -203732.116079,-13950.5403893 L -203735.238602,-13946.6978762 L -203740.89453,-13939.1968983 L -203746.163445,-13931.8994853 L -203751.467084,-13923.9252367 L -203755.403373,-13918.1371296 L -203760.252557,-13911.981685 L -203766.012583,-13904.7426386 L -203779.17524,-13886.9040396 L -203789.687832,-13873.3132389 L -203800.678653,-13858.7658123 L -203808.34632,-13848.7807889 L -203814.615188,-13840.2178592 L -203821.297067,-13831.0662103 L -203834.267602,-13814.1733385 L -203845.172237,-13799.7157125 L -203850.525004,-13792.8640172 L -203861.827048,-13778.8561244 L -203875.055567,-13762.9221873 L -203882.23767,-13753.8750778 L -203887.494301,-13746.9556177 L -203897.636749,-13733.1505891 L -203909.680157,-13716.9557054 L -203916.338799,-13708.7011101 L -203924.328092,-13698.9174242 L -203926.636289,-13695.7415854 L -203928.779796,-13692.4516362 L -203930.133951,-13690.4447014 L -203931.649288,-13688.5572835 L -203943.281035,-13675.4018443 L -203954.334082,-13662.8286632 L -203958.533808,-13658.3412434 L -203962.035897,-13654.5566946 L -203964.195364,-13651.7824133 L -203965.68274,-13649.3682654 L -203970.763139,-13640.1128039 L -203980.053949,-13625.7998574 L -203992.560443,-13610.6503132 L -204005.243814,-13595.1938187 L -204013.905677,-13582.0051327 L -204027.419001,-13559.9277817 L -204037.109407,-13543.3710457 L -204048.233524,-13523.8145499 L -204059.171414,-13506.0836682 L -204068.877477,-13487.7960568 L -204079.787864,-13466.521391 L -204088.459675,-13452.3711187 L -204096.921197,-13440.9742134 L -204107.70564,-13427.418981 L -204113.929006,-13417.6774506 L -204126.232531,-13399.8878203 L -204134.251205,-13388.3096717 L -204142.608457,-13376.857891 L -204159.437644,-13352.3114263 L -204174.74998,-13329.8313545 L -204188.405123,-13312.0655193 L -204196.423784,-13300.4869206 L -204203.313051,-13289.6943858 L -204206.554531,-13283.6356114 L -204208.864811,-13278.6141723 L -204209.803594,-13274.4442329 L -204209.927492,-13270.6267867 L -204208.833472,-13267.2716299 L -204206.849658,-13263.6799698 L -204203.537344,-13260.6226802 L -204199.373346,-13258.1044513 L -204192.659286,-13254.6690272 L -204186.158301,-13251.6986689 L -204181.320518,-13249.8839063 L -204175.78498,-13248.2158255 L -204166.994252,-13245.9132439 L -204149.596795,-13241.8205334 L -204143.460413,-13240.4904738 L -204126.919468,-13238.7306345 L -204114.001502,-13236.7252581 L -204098.059502,-13233.1934478 L -204083.698798,-13230.3619816 L -204076.906884,-13228.3837973 L -204074.649848,-13227.432929 L -204072.053365,-13226.3566227 L -204069.472264,-13225.014136 L -204066.897038,-13223.0633946 L -204064.659406,-13221.2363457 L -204063.187087,-13219.5067618 L -204061.722118,-13218.1220273 L -204059.602868,-13216.5677328 L -204057.772118,-13215.587976 L -204055.948269,-13214.953083 L -204053.82444,-13214.4869608 L -204051.355852,-13214.5072461 L -204049.373113,-13214.8734087 L -204047.046472,-13215.7245985 L -204044.470239,-13216.7736312 L -204042.186608,-13217.3081425 L -204040.277989,-13217.7851722 L -204038.169829,-13218.0109735 L -204034.533823,-13218.0444632 L -204030.580371,-13217.5548573 L -204022.554311,-13215.8252128 L -204010.903525,-13212.4303498 L -203996.34959,-13208.7389394 L -203986.580965,-13205.8751702 L -203975.856717,-13203.0102043 L -203968.482803,-13200.9720347 L -203962.434158,-13199.4876235 L -203957.71556,-13198.4241985 L -203953.261378,-13197.3749223 L -203951.071423,-13196.6673148 L -203949.982551,-13196.1800202 L -203948.475035,-13195.1124012 L -203946.244457,-13193.1534113 L -203943.24793,-13190.1420216 L -203939.441193,-13185.9163453 L -203937.615753,-13184.324744 L -203935.84992,-13183.1092603 L -203934.202469,-13182.1665308 L -203933.055734,-13181.7830218 L -203931.520385,-13181.7226672 L -203930.543644,-13182.1186488 L -203928.907718,-13182.9555498 L -203927.007702,-13184.2559949 L -203924.866046,-13185.6223122 L -203921.754253,-13187.2526832 L -203918.671842,-13188.8311472 L -203914.877707,-13190.3429214 L -203913.049728,-13190.7961869 L -203911.33055,-13191.1778792 L -203908.840926,-13191.116285 L -203906.518835,-13190.8784021 L -203902.005878,-13189.93249 L -203894.641645,-13188.2418039 L -203886.378077,-13185.4898773 L -203880.33477,-13183.3945235 L -203877.586055,-13182.7073862 L -203873.728291,-13181.9314564 L -203870.722974,-13181.5754561 L -203863.477744,-13181.1120091 L -203855.866396,-13180.5753965 L -203849.642169,-13179.877855 L -203845.475236,-13178.9245522 L -203841.417157,-13177.419716 L -203836.784255,-13175.2452432 L -203831.459864,-13172.6073815 L -203827.583831,-13170.6610064 L -203824.9593,-13169.6361159 L -203822.277203,-13169.1918025 L -203818.670158,-13169.1743028 L -203814.835863,-13169.4351318 L -203810.890703,-13169.2917011 L -203806.841253,-13168.6111813 L -203800.609634,-13167.5674396 L -203795.369174,-13166.3410738 L -203791.267201,-13165.1533959 L -203788.973282,-13164.3863932 L -203785.157712,-13162.8147557 L -203779.539482,-13160.2133016 L -203774.317216,-13157.6335426 L -203768.567872,-13155.0240775 L -203763.589353,-13152.8556313 L -203759.891758,-13151.5581144 L -203754.091343,-13149.8754563 L -203749.012261,-13148.6047163 L -203743.758171,-13147.6431228 L -203736.916562,-13146.5926111 L -203727.841033,-13145.149398 L -203719.830631,-13144.1112334 L -203714.253901,-13143.6953396 L -203706.017059,-13142.4794275 L -203700.121869,-13141.0835182 L -203684.622016,-13136.4924998 L -203672.587622,-13132.6718376 L -203668.417252,-13131.0578015 L -203661.666789,-13128.2604848 L -203656.164913,-13126.6328435 L -203654.116241,-13126.2764444 L -203652.043275,-13126.1147571 L -203650.745709,-13126.1634206 L -203649.466697,-13126.3879303 L -203647.778006,-13126.8959076 L -203646.148214,-13127.5701763 L -203644.439892,-13128.4812561 L -203642.825867,-13129.5514232 L -203641.630451,-13130.542248 L -203640.561003,-13131.6686612 L -203638.552424,-13134.4363412 L -203638.130189,-13135.2302785 L -203637.819725,-13136.0745318 L -203637.217568,-13138.2976942 L -203636.516647,-13141.2768634 L -203635.663111,-13145.6813626 L -203634.917785,-13149.4432291 L -203633.609436,-13153.8987255 L -203630.680885,-13161.1596259 L -203625.943133,-13170.9242963 L -203621.97294,-13177.7266247 L -203612.28048,-13192.7023562 L -203603.013281,-13206.9369623 L -203601.983148,-13208.3707927 L -203600.419243,-13210.2298273 L -203599.680553,-13210.9287407 L -203598.837904,-13211.4971367 L -203597.894554,-13211.931741 L -203596.894035,-13212.2094038 L -203595.570919,-13212.3724159 L -203594.237923,-13212.3569962 L -203589.577061,-13212.347288 L -203584.260457,-13212.901086 L -203581.508895,-13213.4274699 L -203580.646652,-13213.6976503 L -203579.822152,-13214.0678346 L -203579.046875,-13214.5328686 L -203577.252512,-13215.9021132 L -203575.612255,-13217.453694 L -203574.471906,-13218.7811519 L -203573.471807,-13220.2178978 L -203573.211981,-13220.7097544 L -203573.025307,-13221.2339661 L -203572.915658,-13221.7796549 L -203572.844554,-13222.7702964 L -203572.881931,-13223.7628108 L -203573.004233,-13224.4963966 L -203573.232126,-13225.2041834 L -203573.821004,-13226.6140604 L -203574.647708,-13228.4895687 L -203575.928857,-13231.0674098 L -203576.641308,-13232.6019186 L -203576.739489,-13232.9170916 L -203576.793943,-13233.2427385 L -203576.803654,-13233.5727843 L -203576.768441,-13233.9010722 L -203576.662961,-13235.0038132 L -203576.734215,-13236.1093373 L -203577.170226,-13238.1858212 L -203577.252527,-13238.4286025 L -203577.36242,-13238.6601372 L -203577.498413,-13238.8772819 L -203577.751999,-13239.1924288 L -203578.04126,-13239.4749735 L -203578.362061,-13239.7208781 L -203579.085317,-13240.2751184 L -203579.738119,-13240.9113108 L -203580.518578,-13241.8116823 L -203580.794146,-13242.1913092 L -203580.920631,-13242.4244005 L -203581.014332,-13242.6725807 L -203581.073507,-13242.9312353 L -203581.152782,-13243.6848277 L -203581.152064,-13244.4425916 L -203580.991563,-13245.8036668 L -203580.627966,-13247.3114871 L -203579.393023,-13250.6229445 L -203577.754631,-13253.7194281 L -203574.618656,-13258.6534411 L -203570.713177,-13264.4486869 L -203563.625072,-13274.5866983 L -203553.397407,-13290.3106601 L -203547.553187,-13299.5295044 L -203536.504664,-13321.7639627 L -203529.08887,-13336.5098883 L -203527.556462,-13339.1627401 L -203520.465189,-13349.994176 L -203514.85917,-13358.0330685 L -203511.32502,-13363.2156595 L -203508.997177,-13366.9894935 L -203504.829072,-13374.1585343 L -203501.705388,-13380.0038073 L -203498.883994,-13385.243131 L -203497.104876,-13388.0995985 L -203494.951169,-13391.1118718 L -203493.749494,-13392.5395932 L -203492.415314,-13393.8435373 L -203489.450405,-13396.956029 L -203486.670271,-13400.6761274 L -203484.964061,-13403.4211137 L -203483.135042,-13406.9296376 L -203480.468803,-13412.5943674 L -203478.943351,-13416.2312739 L -203477.647073,-13419.2821478 L -203476.014539,-13422.2656733 L -203471.859667,-13428.3782949 L -203470.154762,-13430.4949467 L -203468.245022,-13432.4276037 L -203466.972153,-13433.7786423 L -203465.913433,-13435.3043413 L -203464.389583,-13438.1842699 L -203462.501254,-13442.5300958 L -203460.073602,-13449.137685 L -203458.338098,-13453.6938218 L -203456.531096,-13457.7542296 L -203454.863534,-13461.5183501 L -203453.51733,-13464.8946931 L -203451.624221,-13469.7273958 L -203448.194713,-13477.4413284 L -203446.108154,-13481.1664428 L -203443.435935,-13485.0279101 L -203440.118558,-13489.7579344 L -203434.875849,-13497.7248316 L -203431.319497,-13503.4404136 L -203429.581753,-13506.0844565 L -203421.49159,-13516.3165757 L -203414.367645,-13525.1696737 L -203413.433105,-13526.5125448 L -203412.661991,-13527.9560938 L -203412.064941,-13529.4804066 L -203411.009035,-13532.0284714 L -203409.570493,-13534.3804931 L -203402.174004,-13544.3799015 L -203395.607607,-13553.0610024 L -203392.907999,-13557.3487173 L -203388.009809,-13565.7990556 L -203385.537608,-13569.4376278 L -203382.83749,-13572.9093532 L -203380.927816,-13575.4303675 L -203379.250484,-13578.1125709 L -203378.308427,-13580.0260909 L -203377.58974,-13582.034807 L -203376.884582,-13583.9982752 L -203375.956235,-13585.8659595 L -203374.044498,-13589.0636067 L -203372.914858,-13590.7342647 L -203370.90724,-13593.3904959 L -203365.096212,-13600.7367192 L -203360.958083,-13605.6768804 L -203357.436178,-13609.9136007 L -203355.66235,-13612.5358352 L -203354.288172,-13615.3893037 L -203352.487029,-13619.3253754 L -203350.278576,-13623.0467976 L -203347.776867,-13626.5118469 L -203345.027363,-13629.7824933 L -203342.887131,-13632.3793311 L -203340.998634,-13635.1657546 L -203338.192505,-13639.9368145 L -203336.462322,-13643.1873317 L -203333.58714,-13649.5087237 L -203331.332283,-13654.3208999 L -203325.441058,-13665.1895189 L -203320.367495,-13674.2065875 L -203315.236703,-13685.5855721 L -203311.597618,-13693.3837555 L -203310.470569,-13695.6601435 L -203308.641964,-13698.7992131 L -203303.586194,-13706.2378073 L -203295.442501,-13717.6025091 L -203286.499618,-13730.4798578 L -203273.84045,-13746.9527942 L -203260.070432,-13764.4417128 L -203255.744216,-13769.576409 L -203252.045904,-13774.007293 L -203247.985389,-13779.5507996 L -203241.197865,-13789.836237 L -203231.692074,-13804.8556589 L -203222.093012,-13819.8550406 L -203219.288179,-13823.8736436 L -203215.633741,-13829.0208152 L -203213.056045,-13833.2816496 L -203210.832695,-13836.8906727 L -203208.986635,-13839.4515504 L -203204.823038,-13844.9067632 L -203203.273692,-13846.8560045 L -203202.807057,-13847.4270318 L -203201.470862,-13849.1638004 L -203199.711713,-13849.9153042 L -203196.791877,-13850.3536624 L -203192.713233,-13850.665566 L -203187.073951,-13851.7352931 L -203182.397528,-13852.6171459 L -203177.641674,-13852.7746137 L -203172.917239,-13852.2040263 L -203168.334342,-13850.9186832 L -203162.013752,-13848.8836218 L -203155.556148,-13847.341267 L -203148.99964,-13846.3007215 L -203145.210162,-13845.6311767 L -203141.518675,-13844.5419666 L -203137.971217,-13843.0466754 L -203130.458924,-13839.6833018 L -203122.737468,-13836.8363631 L -203113.552349,-13833.919028 L -203104.301037,-13831.2204575 L -203097.699669,-13829.1916823 L -203091.213063,-13826.8193619 L -203087.421537,-13825.5746718 L -203083.509488,-13824.7907675 L -203079.532364,-13824.4787593 L -203072.447871,-13824.0703852 L -203065.41637,-13823.1108895 L -203058.480404,-13821.6060775 L -203051.113043,-13820.0288073 L -203043.640558,-13819.0713816 L -203036.114686,-13818.7404292 L -203029.962361,-13818.3990277 L -203023.880661,-13817.4054622 L -203017.938094,-13815.7709252 L -203014.067281,-13814.7637687 L -203010.097132,-13814.2841638 L -203006.098777,-13814.3407028 L -203000.658505,-13814.4169117 L -202995.257089,-13813.7604803 L -202989.992139,-13812.3832713 L -202984.958798,-13810.3101724 L -202980.625854,-13808.4813933 L -202976.109602,-13807.1731224 L -202971.47195,-13806.4032931 L -202966.776468,-13806.1824578 L -202962.542133,-13805.9777886 L -202958.362399,-13805.2672851 L -202954.297104,-13804.0611189 L -202950.404446,-13802.3765573 L -202948.136031,-13801.447137 L -202945.74967,-13800.8893295 L -202943.30545,-13800.7171798 L -202940.864914,-13800.9350226 L -202935.133666,-13801.6196003 L -202929.362922,-13801.731555 L -202923.609399,-13801.2697862 L -202916.922676,-13800.5614318 L -202910.209648,-13800.1787744 L -202906.755108,-13799.8280172 L -202903.380687,-13799.0070103 L -202900.149699,-13797.7311578 L -202897.122763,-13796.0243978 L -202893.048144,-13793.5880369 L -202888.781323,-13791.5090277 L -202884.353376,-13789.8025128 L -202874.602549,-13786.8533775 L -202864.686522,-13784.523908 L -202858.182631,-13783.5987058 L -202851.615896,-13783.4314569 L -202847.332822,-13783.3314431 L -202843.087265,-13782.7547425 L -202838.931786,-13781.7084946 L -202834.917832,-13780.2056526 L -202831.066969,-13778.8027333 L -202827.068367,-13777.9079029 L -202822.988355,-13777.5360048 L -202818.434638,-13777.166692 L -202813.947789,-13776.3033503 L -202809.580915,-13774.9561981 L -202798.87851,-13771.1211722 L -202793.600437,-13769.631693 L -202788.184287,-13768.7762831 L -202776.262053,-13767.59545 L -202765.833391,-13766.3519127 L -202755.457827,-13764.7212259 L -202739.41863,-13761.8236221 L -202716.139084,-13757.1425461 L -202701.24893,-13753.9079886 L -202689.682251,-13751.4618287 L -202683.897882,-13749.362627 L -202677.993415,-13747.6324558 L -202673.734584,-13746.3387673 L -202669.596767,-13744.696676 L -202666.138095,-13743.2826428 L -202662.59905,-13742.0854116 L -202661.825484,-13741.7852468 L -202661.105529,-13741.3721037 L -202660.455471,-13740.8553284 L -202659.996913,-13740.3626948 L -202659.618646,-13739.8056567 L -202659.329527,-13739.1972584 L -202659.136327,-13738.551747 L -202659.043571,-13737.8842387 L -202659.059043,-13736.9587001 L -202659.227487,-13736.0486067 L -202659.544229,-13735.1792206 L -202660.000475,-13734.3746736 L -202660.583563,-13733.6572978 L -202665.489399,-13728.9187228 L -202673.831887,-13721.2669232 L -202678.45756,-13717.1684419 L -202683.324254,-13713.3611418 L -202699.942747,-13701.1193893 L -202709.682546,-13693.5427047 L -202710.948827,-13692.6394664 L -202712.322776,-13691.9115639 L -202713.780415,-13691.3717003 L -202715.799172,-13690.5904237 L -202717.664284,-13689.4901033 L -202719.326062,-13688.1000536 L -202720.740233,-13686.4573083 L -202726.471022,-13678.9148719 L -202732.490265,-13671.6020319 L -202738.788833,-13664.5298792 L -202741.69385,-13661.1239343 L -202744.310927,-13657.4906807 L -202746.622472,-13653.6545405 L -202750.839573,-13645.1538954 L -202754.342249,-13636.3327802 L -202757.106562,-13627.2514803 L -202759.11362,-13617.9720591 L -202760.349707,-13608.5579342 L -202760.806374,-13599.0734437 L -202760.646114,-13594.7581587 L -202760.104828,-13590.4740948 L -202759.678109,-13586.5576665 L -202759.735375,-13582.6184078 L -202760.068901,-13580.2282791 L -202760.697618,-13577.8987521 L -202761.599342,-13574.6004843 L -202762.105072,-13571.2182107 L -202762.207681,-13567.7995923 L -202762.153025,-13562.2143795 L -202762.314958,-13556.6312931 L -202762.722031,-13552.0961156 L -202763.500844,-13547.6101661 L -202764.444751,-13542.5426565 L -202765.092831,-13537.4285594 L -202765.863493,-13527.5807069 L -202765.946146,-13523.0275475 L -202765.652924,-13518.4830851 L -202765.561593,-13516.4555629 L -202765.716533,-13514.4319691 L -202766.115445,-13512.4422911 L -202766.547426,-13510.2047553 L -202766.673362,-13507.9291047 L -202766.490934,-13505.6572619 L -202766.26968,-13502.6272703 L -202766.502608,-13499.5982284 L -202767.18448,-13496.6382553 L -202767.784151,-13494.0197862 L -202767.979515,-13491.3402076 L -202768.111376,-13489.5721504 L -202768.516785,-13487.8464625 L -202769.185801,-13486.2054609 L -202771.671345,-13480.7399373 L -202773.731195,-13475.0990543 L -202774.748395,-13471.358273 L -202775.41561,-13467.538977 L -202775.727098,-13463.674038 L -202776.332172,-13457.5660537 L -202777.719098,-13451.5878504 L -202779.164737,-13445.8312525 L -202780.068697,-13439.9643965 L -202780.423094,-13434.0384508 L -202780.807687,-13427.333916 L -202781.782287,-13420.6899212 L -202783.339244,-13414.1586059 L -202785.466341,-13407.7912259 L -202787.822485,-13402.4868517 L -202789.009932,-13400.4570717 L -202790.432271,-13398.5854177 L -202790.751392,-13398.1592985 L -202791.009788,-13397.693604 L -202791.202658,-13397.1969831 L -202791.326422,-13396.6786588 L -202791.621278,-13395.4569056 L -202792.083934,-13394.2886916 L -202792.705255,-13393.1970784 L -202793.018938,-13392.6386816 L -202793.244097,-13392.0388339 L -202793.375469,-13391.4115545 L -202793.409985,-13390.7715034 L -202793.346837,-13390.1336394 L -202793.239341,-13388.9662995 L -202793.325316,-13387.7971959 L -202793.602403,-13386.6583721 L -202794.063008,-13385.5810419 L -202795.118048,-13383.1232983 L -202795.762902,-13380.5266844 L -202796.23946,-13376.320243 L -202796.295416,-13372.087034 L -202796.332014,-13371.1097153 L -202796.520847,-13370.1502493 L -202796.857248,-13369.2323467 L -202797.332904,-13368.3786913 L -202797.93606,-13367.6103791 L -202798.651811,-13366.946397 L -202799.07169,-13366.5521092 L -202799.421406,-13366.0940721 L -202799.691489,-13365.5846905 L -202799.874623,-13365.0377598 L -202801.513052,-13357.9408954 L -202802.924627,-13350.7951153 L -202803.599613,-13346.1374799 L -202803.945332,-13341.443632 L -202804.173683,-13339.2296894 L -202804.68589,-13337.0640866 L -202805.473331,-13334.9832845 L -202807.788541,-13330.2319465 L -202810.355786,-13325.6127768 L -202812.465698,-13321.392959 L -202813.95955,-13316.9161844 L -202814.807326,-13312.2724087 L -202815.634612,-13307.602037 L -202817.061616,-13303.0797347 L -202818.686299,-13298.4103482 L -202819.971662,-13293.6357065 L -202822.38273,-13283.0356148 L -202824.718479,-13273.7600575 L -202826.329468,-13267.548328 L -202826.983052,-13265.4410859 L -202827.909716,-13263.4395612 L -202829.093058,-13261.579178 L -202831.074421,-13258.3713806 L -202832.521011,-13254.8878524 L -202833.395883,-13251.2175633 L -202834.723319,-13245.188795 L -202836.7864,-13239.3720033 L -202837.29403,-13237.9013707 L -202837.589586,-13236.3735466 L -202837.667148,-13234.8191361 L -202837.839791,-13229.9468062 L -202838.557847,-13225.1249836 L -202839.812199,-13220.4149048 L -202841.354044,-13216.6854568 L -202843.061195,-13213.1203625 L -202843.751288,-13211.3054352 L -202844.210023,-13209.4182342 L -202844.430217,-13207.4883059 L -202844.805167,-13204.5327063 L -202845.618619,-13201.6672514 L -202846.8521,-13198.9570128 L -202847.343393,-13197.8779081 L -202847.668435,-13196.7372598 L -202847.819928,-13195.560674 L -202848.208041,-13190.6235774 L -202848.838329,-13185.7117149 L -202850.036951,-13179.0890732 L -202850.429883,-13176.3443028 L -202850.470721,-13173.5716257 L -202850.158801,-13170.8163017 L -202850.04145,-13169.6823207 L -202850.090897,-13168.543351 L -202850.306077,-13167.4239471 L -202851.450623,-13162.1288383 L -202852.059001,-13156.7450903 L -202852.508459,-13153.3440143 L -202853.42177,-13150.0378386 L -202853.885289,-13148.2527645 L -202854.041845,-13146.4147821 L -202853.88695,-13144.5766107 L -202853.717603,-13142.6446349 L -202853.864147,-13140.7108321 L -202854.32267,-13138.826828 L -202855.080931,-13137.0429187 L -202855.311114,-13136.5119259 L -202855.460023,-13135.9524907 L -202855.524347,-13135.3770512 L -202855.502655,-13134.7984015 L -202855.39543,-13134.229407 L -202855.205573,-13133.1697731 L -202855.194098,-13132.0932489 L -202855.361326,-13131.0298395 L -202855.702595,-13130.0091844 L -202856.082756,-13128.933572 L -202856.317506,-13127.8168988 L -202856.402707,-13126.6788495 L -202856.336856,-13125.5394859 L -202856.289082,-13124.3089528 L -202856.451505,-13123.0883446 L -202856.819351,-13121.9135235 L -202857.381813,-13120.8190068 L -202858.145847,-13119.4456766 L -202858.764156,-13118.0004152 L -202859.815086,-13114.6862391 L -202863.598608,-13099.1996328 L -202865.423859,-13089.8426231 L -202866.788812,-13080.4069191 L -202867.866013,-13073.1272279 L -202869.34446,-13065.9188152 L -202872.722365,-13051.508771 L -202874.47231,-13045.5142297 L -202876.852885,-13039.7425345 L -202881.241345,-13030.208652 L -202885.221978,-13021.1717532 L -202892.455475,-13005.5853877 L -202893.823315,-13002.1504386 L -202894.638626,-12998.5430593 L -202894.989119,-12997.0381067 L -202895.59031,-12995.615184 L -202896.424591,-12994.315969 L -202897.591905,-12992.5266234 L -202898.46596,-12990.5761736 L -202899.025262,-12988.5125871 L -202899.533251,-12986.6287346 L -202900.324622,-12984.8459691 L -202901.380464,-12983.2068911 L -202902.177433,-12982.3263628 L -202903.114471,-12981.597705 L -202904.163228,-12981.0429629 L -202904.88516,-12980.6703855 L -202905.539406,-12980.1881759 L -202906.10957,-12979.608421 L -202906.581359,-12978.9456525 L -202906.942947,-12978.2164832 L -202907.45635,-12977.1959674 L -202908.135736,-12976.27825 L -202908.961202,-12975.4902159 L -202909.908566,-12974.8549508 L -202910.950074,-12974.3910652 L -202912.71301,-12973.6394416 L -202914.361305,-12972.6604881 L -202915.865994,-12971.4714088 L -202921.181261,-12966.3995452 L -202922.445722,-12964.9080591 L -202923.459349,-12963.234867 L -202924.196679,-12961.4220013 L -202924.40325,-12960.8987905 L -202924.683584,-12960.4113472 L -202925.031705,-12959.9700651 L -202925.440189,-12959.584354 L -202925.900325,-12959.2624382 L -202926.402302,-12959.0111823 L -202927.359997,-12958.5321783 L -202928.24015,-12957.92159 L -202929.02492,-12957.1917944 L -202929.698401,-12956.3575848 L -202930.246939,-12955.4358712 L -202931.039794,-12953.4790105 L -202931.499152,-12951.4175306 L -202931.612368,-12949.3081842 L -202931.352993,-12946.6427461 L -202930.733312,-12944.0377244 L -202929.764929,-12941.5418943 L -202929.354108,-12940.8203648 L -202928.825898,-12940.1802867 L -202928.19599,-12939.6406702 L -202927.483089,-12939.2175417 L -202926.70837,-12938.9234681 L -202925.894841,-12938.7671831 L -202925.066664,-12938.7533285 L -202923.828682,-12938.753695 L -202922.600208,-12938.5998847 L -202921.357575,-12938.4741117 L -202920.111813,-12938.5630308 L -202918.899517,-12938.8640301 L -202917.756295,-12939.3682683 L -202916.846453,-12939.7913077 L -202915.888927,-12940.090293 L -202914.900439,-12940.2600023 L -202913.898254,-12940.2974717 L -202910.824176,-12940.4687685 L -202907.82232,-12941.1546445 L -202905.36922,-12941.728651 L -202902.856559,-12941.9080008 L -202900.347031,-12941.6882189 L -202899.490534,-12941.6081189 L -202898.631573,-12941.654274 L -202897.788545,-12941.8256956 L -202896.979505,-12942.1187123 L -202896.615938,-12942.2469981 L -202896.236432,-12942.3144194 L -202895.85104,-12942.3191901 L -202895.469972,-12942.2611838 L -202895.103323,-12942.1419372 L -202894.760806,-12941.9646092 L -202892.414178,-12940.2125621 L -202890.384949,-12938.0989704 L -202889.383101,-12936.6710872 L -202888.595584,-12935.1139448 L -202888.038655,-12933.4596937 L -202887.723815,-12931.7424892 L -202887.033645,-12923.1008308 L -202886.879438,-12914.4329461 L -202887.261788,-12905.7722513 L -202888.127682,-12899.3639386 L -202889.744797,-12893.1038932 L -202891.46043,-12888.4640145 L -202893.560523,-12883.9860803 L -202895.63334,-12879.6222764 L -202897.376916,-12875.1158936 L -202899.965606,-12867.0795564 L -202900.791335,-12863.516604 L -202901.160667,-12859.8773819 L -202901.421288,-12857.4432846 L -202902.01576,-12855.0689762 L -202902.932606,-12852.8002999 L -202904.154122,-12850.6810593 L -202906.839337,-12847.089688 L -202909.871138,-12843.7875598 L -202917.148422,-12836.7195035 L -202920.60815,-12832.8746814 L -202923.456462,-12828.5545158 L -202925.629449,-12823.8559404 L -202925.968319,-12823.1261249 L -202926.415268,-12822.4574284 L -202926.959618,-12821.8658267 L -202927.588364,-12821.3654539 L -202928.461878,-12820.6765225 L -202929.226276,-12819.8675371 L -202929.865324,-12818.9556784 L -202930.365451,-12817.960312 L -202930.705708,-12817.2777477 L -202931.138721,-12816.6502848 L -202931.655798,-12816.0905185 L -202932.246559,-12815.6096853 L -202932.899147,-12815.2174369 L -202934.364658,-12814.3323931 L -202935.688576,-12813.2458008 L -202936.843574,-12811.9800894 L -202937.80581,-12810.5613856 L -202942.802905,-12802.1636742 L -202947.992395,-12793.8842305 L -202949.311897,-12792.0886213 L -202950.845394,-12790.4731197 L -202952.568697,-12789.0632092 L -202955.426072,-12786.7016463 L -202957.933266,-12783.9690245 L -202960.042835,-12780.9170537 L -202961.714861,-12777.6034867 L -202962.406668,-12776.2391768 L -202963.282481,-12774.9857629 L -202964.324971,-12773.8680441 L -202967.63786,-12770.4703504 L -202970.609496,-12766.768678 L -202973.212315,-12762.7973623 L -202975.422174,-12758.5932403 L -202980.787845,-12747.2334121 L -202985.78558,-12737.2340436 L -202991.122866,-12727.4128681 L -202997.396895,-12716.9592661 L -203001.038601,-12710.6717751 L -203004.151409,-12704.1045838 L -203006.129957,-12699.9708967 L -203008.472028,-12696.0330519 L -203011.158542,-12692.3231279 L -203012.694715,-12690.0128233 L -203013.8157,-12687.4735687 L -203014.488675,-12684.7797145 L -203015.189335,-12681.9662012 L -203016.35078,-12679.3106146 L -203020.764408,-12671.6880795 L -203025.604827,-12664.3308869 L -203030.856238,-12657.2630505 L -203036.501502,-12650.5076395 L -203040.542067,-12645.5566705 L -203044.17366,-12640.2964792 L -203047.909657,-12633.9756438 L -203051.257272,-12627.4394541 L -203053.528103,-12623.075607 L -203056.113464,-12618.891596 L -203058.999287,-12614.9101874 L -203061.409649,-12611.4792094 L -203063.452851,-12607.8162595 L -203065.10693,-12603.9607172 L -203066.7703,-12599.8440979 L -203068.680348,-12595.8366878 L -203071.435303,-12591.1770614 L -203074.716154,-12586.8738376 L -203076.341754,-12584.6499562 L -203077.593116,-12582.1945149 L -203078.438235,-12579.5703125 L -203078.855498,-12576.8444638 L -203078.875994,-12576.5835344 L -203079.587012,-12571.9204935 L -203080.944078,-12567.404003 L -203086.37245,-12552.2399623 L -203088.376166,-12546.7938301 L -203090.672503,-12541.4652441 L -203094.494625,-12533.7528197 L -203095.98061,-12530.5560581 L -203097.131307,-12527.2230234 L -203097.934538,-12523.7889877 L -202733.597945,-12439.7996394 L -202729.443166,-12432.8410898 L -202706.834753,-12440.2220146 L -202716.306358,-12479.6508689 L -202666.188079,-12491.7113662 L -202599.127198,-12479.7709285 L -202213.625149,-12441.0427894 L -202004.047383,-12386.3405089 L -201880.820282,-12391.2271083 L -201729.57179,-12334.1728244 L -201696.911681,-12330.0702648 L -201682.854793,-12352.6989712 L -201645.783239,-12390.590327 L -201574.485132,-12403.8499045 L -201549.768625,-12418.7227999 L -201527.761127,-12420.5967469 L -201514.4735,-12434.2266221 L -201496.515345,-12424.6256277 L -201475.963131,-12396.7311961 L -201449.477618,-12380.7437611 L -201411.204752,-12397.5953932 L -201388.792447,-12381.2948549 L -201365.370318,-12403.8496551 L -201346.326603,-12398.5820444 L -201329.550365,-12401.6050309 L -201317.925218,-12396.3830093 L -201312.730586,-12384.376965 L -201301.763154,-12374.5180613 L -201284.820687,-12384.5566728 L -201277.151476,-12381.4606888 L -201264.950819,-12363.1262896 L -201257.168879,-12364.0571323 L -201243.476104,-12386.8366524 L -201226.877247,-12387.1749992 L -201207.63354,-12373.7955509 L -201188.48908,-12378.4699432 L -201169.442721,-12372.2267268 L -201154.885263,-12388.84709 L -201140.301987,-12393.6353722 L -201111.80393,-12402.7810943 L -201077.761984,-12379.6722384 L -200917.071074,-12438.2582011 L -200883.821113,-12449.2281161 L -200828.673339,-12474.9723025 L -200724.477726,-12465.2180492 L -200678.706283,-12463.7811569 L -200658.67972,-12472.0296067 L -200660.865916,-12478.6948062 L -200645.715914,-12479.4706663 L -200630.524865,-12474.4924229 L -200616.686551,-12470.9047169 L -200601.605539,-12471.0491197 L -200586.499878,-12474.7935237 L -200575.245257,-12480.5752697 L -200555.139669,-12482.9639197 L -200544.03906,-12473.3718114 L -200517.092893,-12466.3716565 L -200503.881554,-12477.4175513 L -200419.465987,-12284.9278031 L -200407.029836,-12237.6926525 L -200410.700335,-12236.7206727 L -200400.783818,-12199.0184947 L -200381.224811,-12179.5612822 L -200463.10912,-12177.654757 L -200473.069805,-12180.9593282 L -200478.594168,-12147.1385091 L -200445.482114,-12042.3536393 L -200435.382564,-12010.3305987 L -200433.781031,-11981.5463196 L -200380.193462,-11812.2546531 L -200379.533572,-11796.202555 L -200442.25381,-11521.7216694 L -200449.421824,-11490.2966501 L -200840.709594,-11508.5400469 L -200829.534128,-11320.4552868 L -200827.994887,-11294.5537314 L -200817.128772,-11111.6958522 L -200815.589493,-11085.7934048 L -200803.643241,-10884.7397773 L -200794.136557,-10724.7579794 L -200793.229116,-10709.5207613 L -200793.0897,-10677.9537443 L -200792.583667,-10677.6662564 L -200761.839854,-10660.202683 L -200700.640034,-10641.2501449 L -200567.517094,-10595.7664298 L -200532.858007,-10555.2668954 L -200518.163578,-10516.9314353 L -200200.030533,-10437.4476346 L -200069.443896,-10429.6203355 L -199959.377659,-10341.1979336 L -200017.589306,-10184.0878783 L -199736.975912,-10105.9099913 L -199626.66299,-9975.14295152 L -199372.691315,-9898.90673716 L -199423.984143,-9997.00182469 z" /></g></svg>